<svg class="img-responsive-SVG subject-icon" version="1.1" xmlns="http://www.w3.org/2000/svg" xmlns:xlink="http://www.w3.org/1999/xlink"
    xmlns:a="http://ns.adobe.com/AdobeSVGViewerExtensions/3.0/" x="0px" y="0px" width="25.25px" height="48.357px"
    viewBox="0 0 25.25 48.357" enable-background="new 0 0 25.25 48.357" xml:space="preserve" preserveAspectRatio="xMinYMin">
    <path fill="#53AA0F" d="M20.477,0.255c-0.737,0.473-0.966,1.532-0.525,2.222c0.1,0.169,0.41,0.73,0.698,1.621L4.341,4.152
    c0.328-1.014,0.683-1.594,0.691-1.606c1.133-1.842-1.651-3.554-2.784-1.706C2.176,0.955-4.466,12.378,9.963,23.754
    C9.33,24.31,8.72,24.887,8.141,25.469C-2.368,36.044,0.258,46.696,0.373,47.142c0.549,2.116,3.661,1.227,3.165-0.809
    c-0.044-0.16-0.227-0.974-0.265-2.282l18.711-0.057c-0.031,1.298-0.208,2.118-0.245,2.269c-0.522,2.095,2.621,2.883,3.166,0.805
    c0.124-0.503,2.917-12.344-9.74-23.33c10.527-8.393,10.577-18.073,7.562-22.976C22.244-0.008,21.22-0.227,20.477,0.255L20.477,0.255
    z M17.553,31.045l-9.93,0.028c1.338-1.826,3.053-3.643,4.947-5.258C14.51,27.443,16.182,29.2,17.553,31.045L17.553,31.045z
    M5.493,34.452l14.189-0.007c1.395,2.8,1.95,5.067,2.057,6.378L3.486,40.85C3.776,37.997,5.167,35.313,5.493,34.452L5.493,34.452z
    M7.677,17.083l9.701-0.015c-1.282,1.565-2.925,3.121-4.814,4.575C10.623,20.177,8.984,18.646,7.677,17.083L7.677,17.083z
    M19.602,13.719L5.449,13.82C4.29,11.634,3.864,9.732,3.805,7.695l17.359-0.184l0.022,0.21
    C21.149,10.459,20.093,13.021,19.602,13.719L19.602,13.719z M19.602,13.719" />
</svg>