<svg class="img-responsive-SVG " version="1.1"
	 xmlns="http://www.w3.org/2000/svg" xmlns:xlink="http://www.w3.org/1999/xlink" xmlns:a="http://ns.adobe.com/AdobeSVGViewerExtensions/3.0/"
	 x="0px" y="0px" width="27.629px" height="29.755px" viewBox="0 0 27.629 29.755" enable-background="new 0 0 27.629 29.755"
	 xml:space="preserve" preserveAspectRatio="xMinYMin">
	<path fill="#C9C9C9" d="M26.998,4.882c-0.42-0.421-0.918-0.631-1.494-0.631h-2.126V2.657c0-0.73-0.26-1.356-0.78-1.877
		C22.078,0.261,21.452,0,20.722,0h-1.063c-0.73,0-1.355,0.261-1.876,0.78c-0.52,0.52-0.781,1.146-0.781,1.877v1.594h-6.376V2.657
		c0-0.73-0.26-1.356-0.78-1.877C9.326,0.261,8.701,0,7.97,0H6.907c-0.73,0-1.355,0.261-1.876,0.78
		c-0.52,0.52-0.78,1.146-0.78,1.877v1.594H2.126c-0.576,0-1.074,0.21-1.495,0.631C0.21,5.302,0,5.801,0,6.377V27.63
		c0,0.575,0.21,1.073,0.631,1.494c0.421,0.421,0.918,0.631,1.495,0.631h23.378c0.576,0,1.075-0.21,1.495-0.631
		c0.421-0.421,0.631-0.919,0.631-1.494V6.377C27.629,5.801,27.419,5.302,26.998,4.882L26.998,4.882z M19.128,2.657
		c0-0.155,0.05-0.283,0.149-0.382c0.099-0.1,0.227-0.149,0.382-0.149h1.063c0.155,0,0.281,0.05,0.382,0.149
		c0.099,0.1,0.149,0.227,0.149,0.382v4.782c0,0.155-0.05,0.283-0.149,0.382C21.004,7.92,20.877,7.97,20.722,7.97h-1.063
		c-0.155,0-0.283-0.05-0.382-0.149c-0.1-0.1-0.149-0.227-0.149-0.382V2.657z M6.377,2.657c0-0.155,0.05-0.283,0.149-0.382
		c0.1-0.1,0.227-0.149,0.381-0.149H7.97c0.155,0,0.283,0.05,0.382,0.149c0.1,0.1,0.149,0.227,0.149,0.382v4.782
		c0,0.155-0.05,0.283-0.149,0.382C8.252,7.92,8.125,7.97,7.97,7.97H6.907c-0.154,0-0.281-0.05-0.381-0.149
		c-0.099-0.1-0.149-0.227-0.149-0.382V2.657z M25.503,27.629H2.126V10.627h23.378V27.629z M25.503,27.629"/>
</svg>
