<svg className="img-responsive-SVG" version="1.1"
	 xmlns="http://www.w3.org/2000/svg" xmlns:xlink="http://www.w3.org/1999/xlink" xmlns:a="http://ns.adobe.com/AdobeSVGViewerExtensions/3.0/"
	 x="0px" y="0px" width="34.003px" height="38.147px" viewBox="0 0 34.003 38.147" enable-background="new 0 0 34.003 38.147"
	 xml:space="preserve">
		<path fill="#53AA0F" d="M8.866,11.151c0.433-0.433,0.999-0.648,1.565-0.648c0.567,0,1.133,0.216,1.565,0.648l2.771,2.771V2.213
			C14.768,0.991,15.759,0,16.981,0c1.223,0,2.214,0.991,2.214,2.213v11.858l2.921-2.921c0.432-0.433,0.998-0.648,1.565-0.648
			c0.566,0,1.133,0.216,1.565,0.648c0.532,0.531,0.734,1.267,0.612,1.956l-0.001,0.001c-0.009,0.05-0.024,0.098-0.038,0.147
			c-0.019,0.076-0.039,0.153-0.067,0.226c-0.018,0.05-0.039,0.099-0.061,0.147c-0.034,0.077-0.075,0.151-0.119,0.225
			c-0.023,0.039-0.045,0.077-0.07,0.115c-0.076,0.109-0.159,0.215-0.256,0.312l-6.608,6.608c-0.432,0.432-0.999,0.647-1.565,0.647
			h-0.032c-0.567,0-1.133-0.215-1.565-0.647l-3.458-3.458l-3.151-3.15c-0.097-0.098-0.179-0.202-0.254-0.312
			c-0.027-0.038-0.048-0.077-0.071-0.116c-0.044-0.073-0.083-0.147-0.118-0.223c-0.022-0.05-0.044-0.1-0.062-0.15
			c-0.027-0.073-0.047-0.146-0.066-0.221c-0.012-0.051-0.029-0.101-0.039-0.153C8.132,12.418,8.334,11.682,8.866,11.151
			L8.866,11.151z"/>
		<path fill="#53AA0F" d="M34.003,32.818c0,2.988-2.93,5.329-6.671,5.329H6.671C2.931,38.147,0,35.806,0,32.818V18.435
			c0-2.525,2.096-4.583,5.003-5.161c0.126,1.247,0.673,2.403,1.57,3.3l0.857,0.857H6.671c-1.514,0-2.346,0.754-2.346,1.004v14.383
			c0,0.25,0.831,1.004,2.346,1.004h20.662c1.514,0,2.346-0.755,2.346-1.004V18.435c0-0.25-0.832-1.004-2.346-1.004h-0.65
			l0.857-0.857c0.893-0.893,1.437-2.04,1.566-3.278c2.851,0.607,4.897,2.645,4.897,5.139V32.818z"/>
</svg>
