<svg className="img-responsive-SVG" version="1.1" xmlns="http://www.w3.org/2000/svg" x="0px" y="0px"
	width="28.465px" height="31.523px" viewBox="0 0 28.465 31.523" enableBackground="new 0 0 28.465 31.523"
	xml:space="preserve" preserveAspectRatio="xMinYMin">
	<path fill="#53AA0F" d="M15.233,0c-2.592,0-4.705,2.114-4.705,4.705s2.113,4.705,4.705,4.705c2.591,0,4.705-2.114,4.705-4.705
		S17.824,0,15.233,0L15.233,0z M6.815,5.286c-2.072,0-3.764,1.692-3.764,3.764c0,2.072,1.692,3.764,3.764,3.764
		c2.072,0,3.764-1.692,3.764-3.764C10.579,6.978,8.886,5.286,6.815,5.286L6.815,5.286z M3.411,14.056
		C1.534,14.056,0,15.59,0,17.467c0,1.877,1.534,3.411,3.411,3.411c1.877,0,3.411-1.534,3.411-3.411
		C6.822,15.59,5.288,14.056,3.411,14.056L3.411,14.056z M26.936,15.938c-0.837,0-1.529,0.692-1.529,1.53
		c0,0.837,0.691,1.529,1.529,1.529c0.837,0,1.53-0.691,1.53-1.529C28.465,16.63,27.773,15.938,26.936,15.938L26.936,15.938z
		M6.815,22.827c-1.617,0-2.941,1.323-2.941,2.941c0,1.617,1.324,2.941,2.941,2.941c1.617,0,2.941-1.324,2.941-2.941
		C9.755,24.15,8.432,22.827,6.815,22.827L6.815,22.827z M23.532,23.885c-1.032,0-1.882,0.85-1.882,1.882
		c0,1.032,0.85,1.882,1.882,1.882c1.033,0,1.882-0.85,1.882-1.882C25.415,24.735,24.565,23.885,23.532,23.885L23.532,23.885z
		M15.233,26.818c-1.292,0-2.352,1.06-2.352,2.352c0,1.292,1.06,2.352,2.352,2.352c1.292,0,2.352-1.06,2.352-2.352
		C17.585,27.878,16.525,26.818,15.233,26.818L15.233,26.818z" />
</svg>