<svg class="img-responsive-SVG upload"  version="1.1"
	 xmlns="http://www.w3.org/2000/svg" xmlns:xlink="http://www.w3.org/1999/xlink" xmlns:a="http://ns.adobe.com/AdobeSVGViewerExtensions/3.0/"
	 x="0px" y="0px" width="39.018px" height="28.32px" viewBox="0 0 39.018 28.32" enable-background="new 0 0 39.018 28.32"
	 xml:space="preserve" preserveAspectRatio="xMinYMin">
		<path fill="#53AA0F" d="M33.273,10.256c-1.102-2.922-3.926-5.006-7.233-5.006c-0.759,0-1.497,0.11-2.192,0.319
			c-1.886-3.046-5.249-5.07-9.089-5.07c-5.83,0-10.57,4.664-10.692,10.459C1.933,12.194,0.5,14.497,0.5,17.13
			c0,3.934,3.196,7.129,7.129,7.129h7.129V21.88H7.623c-2.616,0-4.744-2.122-4.744-4.75c0-2.244,1.559-4.136,3.665-4.629
			c-0.07-0.423-0.104-0.864-0.104-1.311c0-4.594,3.724-8.311,8.319-8.311c3.752,0,6.926,2.487,7.958,5.904
			c0.916-0.725,2.066-1.154,3.323-1.154c2.756,0,5.018,2.076,5.313,4.75h0.036c2.621,0,4.75,2.129,4.75,4.75
			c0,2.622-2.124,4.75-4.75,4.75h-7.129v2.379h7.129c3.932,0,7.129-3.202,7.129-7.129C38.518,13.847,36.295,11.08,33.273,10.256
			L33.273,10.256z M33.273,10.256"/>
		<path fill="#53AA0F" d="M31.389,24.759h-7.13c-0.276,0-0.5-0.224-0.5-0.5V21.88c0-0.276,0.224-0.5,0.5-0.5h7.13
			c2.344,0,4.25-1.907,4.25-4.25s-1.906-4.25-4.25-4.25c-0.255,0-0.505-0.192-0.533-0.445c-0.271-2.454-2.341-4.305-4.816-4.305
			c-1.105,0-2.147,0.362-3.014,1.046c-0.128,0.103-0.302,0.135-0.459,0.085c-0.158-0.05-0.281-0.174-0.329-0.333
			c-0.986-3.267-4.062-5.549-7.479-5.549c-4.312,0-7.819,3.504-7.819,7.812c0,0.425,0.033,0.839,0.098,1.229
			c0.043,0.26-0.123,0.509-0.379,0.569c-1.931,0.452-3.279,2.155-3.279,4.142c0,2.344,1.904,4.25,4.244,4.25h7.136
			c0.276,0,0.5,0.224,0.5,0.5v2.379c0,0.276-0.224,0.5-0.5,0.5h-7.13C3.422,24.759,0,21.337,0,17.13
			c0-2.618,1.363-5.067,3.576-6.459C3.849,4.762,8.808,0,14.759,0c3.774,0,7.228,1.858,9.311,4.99c0.639-0.159,1.299-0.24,1.97-0.24
			c3.32,0,6.346,2.037,7.608,5.094c3.175,0.98,5.37,3.939,5.37,7.285C39.018,21.337,35.596,24.759,31.389,24.759z M24.759,23.759
			h6.63c3.655,0,6.629-2.974,6.629-6.629c0-2.98-2.005-5.608-4.877-6.391c-0.154-0.042-0.279-0.156-0.336-0.306
			c-1.056-2.8-3.774-4.682-6.766-4.682c-0.702,0-1.391,0.1-2.047,0.298c-0.217,0.069-0.45-0.023-0.569-0.215
			C21.549,2.807,18.311,1,14.759,1C9.255,1,4.682,5.472,4.566,10.969c-0.004,0.174-0.099,0.334-0.249,0.422
			C2.271,12.576,1,14.774,1,17.13c0,3.655,2.974,6.629,6.629,6.629h6.63V22.38H7.623c-2.892,0-5.244-2.355-5.244-5.25
			c0-2.299,1.463-4.292,3.61-4.992c-0.033-0.308-0.05-0.625-0.05-0.947c0-4.859,3.956-8.812,8.819-8.812
			c3.626,0,6.91,2.277,8.213,5.615c0.92-0.568,1.968-0.865,3.067-0.865c2.84,0,5.239,2.021,5.747,4.768
			c2.727,0.219,4.853,2.482,4.853,5.233c0,2.895-2.355,5.25-5.25,5.25h-6.63V23.759z"/>
		<path fill="#53AA0F" d="M19.509,11.19l-5.94,7.129h3.561v9.501h4.75v-9.501h3.568L19.509,11.19z M19.509,11.19"/>
		<path fill="#53AA0F" d="M21.88,28.32h-4.75c-0.276,0-0.5-0.224-0.5-0.5v-9.001h-3.061c-0.194,0-0.37-0.112-0.453-0.288
			c-0.082-0.175-0.056-0.383,0.069-0.532l5.939-7.129c0.189-0.229,0.578-0.229,0.768,0L25.832,18
			c0.125,0.149,0.151,0.356,0.069,0.532c-0.083,0.176-0.259,0.288-0.453,0.288H22.38v9.001C22.38,28.097,22.156,28.32,21.88,28.32z
			 M17.63,27.32h3.75v-9.001c0-0.276,0.224-0.5,0.5-0.5h2.501l-4.872-5.848l-4.872,5.848h2.493c0.276,0,0.5,0.224,0.5,0.5V27.32z"/>
</svg>
