<svg class="img-responsive-SVG icon-information" version="1.1" xmlns="http://www.w3.org/2000/svg" xmlns:xlink="http://www.w3.org/1999/xlink"
xmlns:a="http://ns.adobe.com/AdobeSVGViewerExtensions/3.0/" x="0px" y="0px" width="67.396px" height="67.396px"
viewBox="0 0 67.396 67.396" enable-background="new 0 0 67.396 67.396" xml:space="preserve" preserveAspectRatio="xMinYMin">
<circle opacity="0.3" fill="#C9C9C9" cx="33.698" cy="33.698" r="33.698" />
<g>
        <g>
        <path fill="#D15213" d="M32.044,2.13l3.626,1.713l2.978-2.695l0.818,5.502l-6.603,0.982L32.044,2.13z M32.044,2.13" />
        <path fill="#057091" d="M48.987,4.023L7.171,10.239l6.766,45.513c5.242,4.7,12.166,7.562,19.761,7.562
                        c10.75,0,20.161-5.728,25.351-14.297L52.778,6.832C52.507,5.011,50.81,3.752,48.987,4.023z" />
        <path fill="#FF8A00" d="M40.182,5.332l8.052,54.166c1.824-1.03,3.527-2.246,5.084-3.625L45.684,4.514L40.182,5.332z" />

        <rect x="11.244" y="26.391" transform="matrix(-0.9891 0.147 -0.147 -0.9891 60.9094 68.3013)" fill="#5FD8C5" width="33.373"
                height="20.021" />

        <rect x="49.901" y="22.629" transform="matrix(-0.9891 0.147 -0.147 -0.9891 110.6987 57.0965)" fill="#5FD8C5" width="6.676"
                height="20.021" />
        </g>
        <path opacity="0.3" d="M33.698,61.314c-16.021,0-29.062-12.724-29.591-28.616c-0.011,0.333-0.025,0.665-0.025,1
        c0,16.357,13.26,29.616,29.616,29.616c16.357,0,29.616-13.26,29.616-29.616c0-0.335-0.014-0.667-0.025-1
        C62.76,48.59,49.719,61.314,33.698,61.314z" />
</g>
</svg>