<svg class="img-responsive-SVG icon-information" version="1.1" xmlns="http://www.w3.org/2000/svg" xmlns:xlink="http://www.w3.org/1999/xlink"
    xmlns:a="http://ns.adobe.com/AdobeSVGViewerExtensions/3.0/" x="0px" y="0px" width="67.396px" height="73.633px"
    viewBox="0 0 67.396 73.633" enable-background="new 0 0 67.396 73.633" xml:space="preserve" preserveAspectRatio="xMinYMin">
    <circle opacity="0.3" fill="#C9C9C9" cx="33.698" cy="39.935" r="33.698" />
    <circle fill="#C9C9C9" cx="33.698" cy="39.935" r="29.616" />
    <g>
        <path fill="#5FD8C5" d="M30.097,69.325c1.181,0.143,2.381,0.226,3.601,0.226c12.572,0,23.306-7.837,27.604-18.888L50.217,28.065
                L30.097,69.325z" />
        <path fill="#1EA4C4" d="M50.217,33.236l-5.088,5.294l-6.508,13.419c0,0,7.598,13.495,11.596,12.188
                c4.178-1.366,9.265-9.639,9.265-9.639c0.694-1.226,1.302-2.505,1.818-3.831L55.306,38.53L50.217,33.236z"
        />
        <path fill="#1589AD" d="M7.467,53.682c4.953,9.432,14.838,15.869,26.231,15.869c7.921,0,15.11-3.116,20.424-8.181L28.976,8.762
                L7.467,53.682z" />
        <path fill="#1EA4C4" d="M28.976,59.751l16.108-17.273l-9.11-19.047l-6.999-7.453l-7.11,7.453l-9.109,19.047L28.976,59.751z
                M28.976,59.751" />
        <path fill="#5FD8C5" d="M33.531,38.101l4.555,4.851l4.777-4.969L28.976,8.762L14.978,37.983l4.778,4.969l4.554-4.851l4.666,4.851
                L33.531,38.101z M33.531,38.101" />
        <path opacity="0.3" d="M33.698,67.551c-16.021,0-29.062-12.724-29.591-28.616c-0.011,0.333-0.025,0.665-0.025,1
                c0,16.357,13.26,29.616,29.616,29.616c16.357,0,29.616-13.26,29.616-29.616c0-0.335-0.014-0.667-0.025-1
                C62.76,54.827,49.719,67.551,33.698,67.551z" />
        <g>
            <path fill="#D15213" d="M39.719,6.918l1.191-2.035h-7.48v4.07h7.48L39.719,6.918z M39.719,6.918" />
            <polyline fill="#FF4E00" points="38.146,6.54 33.412,8.953 33.412,7.223 33.412,5.922" />
            <path fill="#1589AD" d="M29.428,2.34c-0.293,0-0.293,0-0.977-0.203v9.461c0,0.407,0.587,0.712,0.977,0.712
                    c0.392,0,0.978-0.306,0.978-0.712V2.137C30.407,2.544,29.722,2.34,29.428,2.34L29.428,2.34z M29.428,2.34"
            />
            <rect x="30.407" y="2.849" fill="#FF8A00" width="7.822" height="3.895" />
            <path fill="#FF8A00" d="M30.798,1.424c0,0.787-0.613,1.424-1.369,1.424S28.06,2.211,28.06,1.424S28.673,0,29.429,0
                    S30.798,0.638,30.798,1.424L30.798,1.424z M30.798,1.424" />
        </g>
    </g>
</svg>