<svg class="img-responsive-SVG icon-information" version="1.1" xmlns="http://www.w3.org/2000/svg" xmlns:xlink="http://www.w3.org/1999/xlink"
xmlns:a="http://ns.adobe.com/AdobeSVGViewerExtensions/3.0/" x="0px" y="0px" width="67.396px" height="67.396px"
viewBox="0 0 67.396 67.396" enable-background="new 0 0 67.396 67.396" xml:space="preserve" preserveAspectRatio="xMinYMin">
<circle opacity="0.3" fill="#C9C9C9" cx="33.698" cy="33.698" r="33.698" />
<g>
        <path fill="#057091" d="M57.412,11.893c0-2.43-2.381-3.905-4.812-3.905H15.197c-2.43,0-4.786,1.475-4.786,3.905v40.056
        c2.162,2.752,4.797,5.115,7.787,6.958c2.707,1.638,5.638,2.87,8.755,3.603c0.047,0.011,0.095,0.022,0.142,0.033
        c0.453,0.104,0.911,0.195,1.372,0.279c0.102,0.018,0.204,0.038,0.306,0.055c0.414,0.07,0.833,0.128,1.253,0.181
        c0.132,0.016,0.263,0.036,0.396,0.05c0.418,0.046,0.839,0.08,1.262,0.109c0.125,0.008,0.25,0.022,0.375,0.029
        c0.544,0.03,1.092,0.047,1.645,0.047c0.03,0,0.059-0.002,0.089-0.002c0.521-0.001,1.038-0.017,1.551-0.045
        c0.202-0.011,0.402-0.031,0.603-0.046c0.344-0.026,0.687-0.053,1.027-0.091c0.216-0.024,0.429-0.053,0.643-0.082
        c0.332-0.044,0.663-0.091,0.992-0.147c0.196-0.033,0.392-0.068,0.587-0.105c0.364-0.069,0.727-0.144,1.086-0.226
        c0.148-0.034,0.297-0.067,0.444-0.102c0.458-0.112,0.912-0.233,1.361-0.367c0.045-0.013,0.091-0.025,0.137-0.039
        c1.596-0.481,3.139-1.093,4.622-1.825c0.019-0.01,0.038-0.02,0.057-0.029c0.415-0.206,0.823-0.425,1.229-0.649
        c0.206-0.115,0.41-0.232,0.613-0.352c0.161-0.094,0.32-0.19,0.479-0.287c3.176-1.958,5.957-4.497,8.188-7.472V11.893z"
        />
        <path fill="#F0F2FA" d="M52.6,10.988H15.197c-0.608,0-0.786,0.298-0.786,0.905v44.241c5,4.621,11.781,7.157,19.299,7.157
        c7.711,0,14.701-2.682,19.701-7.509V11.893C53.412,11.286,53.207,10.988,52.6,10.988z" />
        <path fill="#C8CFE2" d="M33.898,7.493c-0.608,0-1.1-0.493-1.1-1.1c0-0.608,0.492-1.1,1.1-1.1s1.1,0.493,1.1,1.1
        C34.999,7,34.506,7.493,33.898,7.493L33.898,7.493z M40.499,7.493h-3.3v-1.1c0-1.823-1.477-3.3-3.3-3.3
        c-1.823,0-3.3,1.478-3.3,3.3v1.1h-3.3c-1.215,0-2.2,0.985-2.2,2.2v2.2h17.601v-2.2C42.699,8.478,41.714,7.493,40.499,7.493
        L40.499,7.493z" />
        <path fill="#AFB9D2" d="M42.699,12.993H25.098c-0.608,0-1.1-0.493-1.1-1.1c0-0.608,0.493-1.1,1.1-1.1h17.601
        c0.608,0,1.1,0.493,1.1,1.1C43.799,12.501,43.307,12.993,42.699,12.993L42.699,12.993z" />
        <path fill="#FF8A00" d="M22.898,28.394c-0.281,0-0.563-0.107-0.778-0.322l-3.3-3.3c-0.43-0.43-0.43-1.126,0-1.556
        c0.43-0.43,1.126-0.43,1.556,0l2.522,2.523l4.723-4.723c0.43-0.43,1.126-0.43,1.556,0c0.43,0.43,0.43,1.126,0,1.556l-5.5,5.5
        C23.461,28.287,23.179,28.394,22.898,28.394L22.898,28.394z" />
        <path fill="#B1BBD3" d="M41.599,23.994h-8.801c-0.608,0-1.1-0.492-1.1-1.1c0-0.607,0.493-1.1,1.1-1.1h8.801
        c0.608,0,1.1,0.493,1.1,1.1C42.699,23.502,42.207,23.994,41.599,23.994" />
        <path fill="#C9D0E3" d="M47.099,28.394H32.798c-0.608,0-1.1-0.492-1.1-1.1c0-0.608,0.493-1.1,1.1-1.1h14.301
                                c0.608,0,1.1,0.493,1.1,1.1C48.2,27.902,47.707,28.394,47.099,28.394" />
        <path fill="#FF8A00" d="M22.898,54.796c-0.281,0-0.563-0.107-0.778-0.322l-3.3-3.3c-0.43-0.43-0.43-1.126,0-1.556
        c0.43-0.43,1.126-0.43,1.556,0l2.522,2.523l4.723-4.723c0.43-0.43,1.126-0.43,1.556,0c0.43,0.43,0.43,1.126,0,1.556l-5.5,5.5
        C23.461,54.689,23.179,54.796,22.898,54.796L22.898,54.796z" />
        <path fill="#B1BBD3" d="M41.599,50.396h-8.801c-0.608,0-1.1-0.492-1.1-1.1s0.493-1.1,1.1-1.1h8.801c0.608,0,1.1,0.493,1.1,1.1
                                S42.207,50.396,41.599,50.396" />
        <path fill="#C9D0E3" d="M47.099,54.796H32.798c-0.608,0-1.1-0.493-1.1-1.1s0.493-1.1,1.1-1.1h14.301c0.608,0,1.1,0.493,1.1,1.1
        S47.707,54.796,47.099,54.796" />
        <path fill="#FF8A00" d="M22.898,41.595c-0.281,0-0.563-0.107-0.778-0.322l-3.3-3.3c-0.43-0.43-0.43-1.126,0-1.556
        c0.43-0.43,1.126-0.43,1.556,0l2.522,2.523l4.723-4.723c0.43-0.43,1.126-0.43,1.556,0c0.43,0.43,0.43,1.126,0,1.556l-5.5,5.5
        C23.461,41.488,23.179,41.595,22.898,41.595L22.898,41.595z" />
        <path fill="#B1BBD3" d="M41.599,37.195h-8.801c-0.608,0-1.1-0.492-1.1-1.1c0-0.608,0.493-1.1,1.1-1.1h8.801
        c0.608,0,1.1,0.492,1.1,1.1C42.699,36.703,42.207,37.195,41.599,37.195" />
        <path fill="#C9D0E3" d="M47.099,41.595H32.798c-0.608,0-1.1-0.493-1.1-1.1c0-0.608,0.493-1.1,1.1-1.1h14.301
        c0.608,0,1.1,0.493,1.1,1.1C48.2,41.103,47.707,41.595,47.099,41.595" />
        </g>
        <path opacity="0.3" d="M4.082,33.675c0.012,16.346,13.267,29.616,29.615,29.616c16.355,0,29.613-13.245,29.616-29.599
                c0-0.009-0.001-0.018-0.001-0.027c0-0.281-0.024-0.555-0.032-0.834c-0.597,15.83-13.607,28.483-29.583,28.483
                c-15.974,0-28.982-12.649-29.583-28.477c-0.007,0.248-0.03,0.492-0.03,0.742C4.084,33.611,4.082,33.643,4.082,33.675z"
        />
        </g>
</svg>