<svg class="img-responsive-SVG" version="1.1"
	 xmlns="http://www.w3.org/2000/svg" xmlns:xlink="http://www.w3.org/1999/xlink" xmlns:a="http://ns.adobe.com/AdobeSVGViewerExtensions/3.0/"
	 x="0px" y="0px" width="21.966px" height="24.643px" viewBox="0 0 21.966 24.643" enable-background="new 0 0 21.966 24.643"
	 xml:space="preserve" preserveAspectRatio="xMinYMin">
	<path fill="#999999" d="M5.728,7.204c0.28-0.28,0.646-0.419,1.011-0.419c0.366,0,0.732,0.139,1.011,0.419l1.79,1.79l0-7.564
		C9.54,0.64,10.18,0,10.97,0c0.79,0,1.431,0.64,1.431,1.43l0,7.66l1.887-1.887c0.279-0.28,0.645-0.419,1.011-0.419
		c0.365,0,0.732,0.139,1.011,0.419c0.344,0.343,0.474,0.818,0.395,1.263l-0.001,0.001C16.698,8.5,16.688,8.531,16.68,8.562
		c-0.012,0.049-0.025,0.099-0.043,0.146c-0.012,0.032-0.025,0.064-0.04,0.095c-0.022,0.05-0.049,0.097-0.077,0.145
		c-0.015,0.025-0.029,0.05-0.045,0.074c-0.049,0.07-0.102,0.139-0.166,0.202l-4.269,4.269c-0.279,0.279-0.646,0.418-1.011,0.418
		h-0.02c-0.366,0-0.732-0.139-1.011-0.418L7.764,11.26L5.728,9.225C5.666,9.162,5.613,9.094,5.564,9.023
		c-0.017-0.024-0.031-0.05-0.046-0.075C5.49,8.901,5.464,8.854,5.442,8.804C5.427,8.772,5.413,8.74,5.402,8.708
		C5.384,8.66,5.371,8.613,5.359,8.565C5.351,8.532,5.34,8.5,5.334,8.466C5.254,8.022,5.384,7.547,5.728,7.204L5.728,7.204z"/>
	<path fill="#999999" d="M21.966,21.201c0,1.93-1.893,3.442-4.31,3.442l-13.347,0c-2.416,0-4.31-1.512-4.31-3.442l0-9.292
		c0-1.631,1.354-2.96,3.232-3.334c0.082,0.805,0.435,1.552,1.015,2.132L4.8,11.261H4.31c-0.978,0-1.515,0.487-1.515,0.648l0,9.292
		c0,0.162,0.537,0.649,1.515,0.649l13.348,0c0.978,0,1.515-0.488,1.515-0.649l0-9.292c0-0.161-0.538-0.648-1.515-0.648l-0.42,0
		l0.554-0.554c0.577-0.577,0.928-1.318,1.012-2.118c1.842,0.392,3.164,1.709,3.164,3.32L21.966,21.201z"/>
</svg>
