<svg class="img-responsive-SVG edit" version="1.1"
	 xmlns="http://www.w3.org/2000/svg" xmlns:xlink="http://www.w3.org/1999/xlink" xmlns:a="http://ns.adobe.com/AdobeSVGViewerExtensions/3.0/"
	 x="0px" y="0px" width="23.297px" height="22.333px" viewBox="0 0 23.297 22.333" enable-background="new 0 0 23.297 22.333"
	 xml:space="preserve" preserveAspectRatio="xMinYMin">
		<path fill="#53AA0F" d="M22.974,2.405l-2.083-2.081C20.674,0.107,20.392,0,20.11,0c-0.285,0-0.566,0.107-0.781,0.321l-1.668,1.664
			l3.646,3.639l1.666-1.663C23.404,3.532,23.404,2.833,22.974,2.405L22.974,2.405z M22.974,2.405"/>
		<path fill="#53AA0F" d="M6.84,12.786l3.646,3.639L20.527,6.402l-3.646-3.639L6.84,12.786z M6.84,12.786"/>
		<path fill="#53AA0F" d="M6.052,13.566l-0.778,4.413l4.424-0.776L6.052,13.566z M6.052,13.566"/>
		<path fill="#53AA0F" d="M16.131,19.948H2.386V6.202h9.701l2.39-2.386H1.542C0.694,3.816,0,4.511,0,5.361v15.43
			c0,0.848,0.694,1.542,1.542,1.542h15.43c0.85,0,1.545-0.694,1.545-1.542V9.76l-2.386,2.381V19.948z M16.131,19.948"/>
</svg>
