<svg class="img-responsive-SVG" version="1.1"
	 xmlns="http://www.w3.org/2000/svg" xmlns:xlink="http://www.w3.org/1999/xlink" xmlns:a="http://ns.adobe.com/AdobeSVGViewerExtensions/3.0/"
	 x="0px" y="0px" width="25.019px" height="23.889px" viewBox="0 0 25.019 23.889" enable-background="new 0 0 25.019 23.889"
	 xml:space="preserve" preserveAspectRatio="xMinYMin">
<path fill="#999999" d="M11.644,0.54C11.807,0.208,12.142,0,12.511,0s0.706,0.208,0.87,0.54l3.112,6.312
	c0.142,0.285,0.414,0.482,0.73,0.53l6.968,1.012c0.364,0.053,0.667,0.308,0.781,0.659c0.113,0.35,0.018,0.735-0.246,0.993
	l-5.039,4.913c-0.229,0.221-0.332,0.542-0.279,0.856l1.188,6.939c0.063,0.364-0.087,0.73-0.385,0.949
	c-0.298,0.216-0.693,0.245-1.02,0.074l-6.23-3.276c-0.282-0.15-0.619-0.15-0.901,0l-6.233,3.273c-0.325,0.174-0.72,0.145-1.02-0.071
	c-0.298-0.219-0.445-0.586-0.385-0.949l1.188-6.939c0.055-0.314-0.05-0.635-0.277-0.856l-5.041-4.913
	C0.029,9.789-0.066,9.403,0.047,9.053C0.16,8.702,0.464,8.447,0.83,8.394l6.966-1.012c0.316-0.047,0.59-0.245,0.73-0.53L11.644,0.54
	z M11.644,0.54"/>
</svg>
