<svg class="img-responsive-SVG" version="1.1"
	 xmlns="http://www.w3.org/2000/svg" xmlns:xlink="http://www.w3.org/1999/xlink" xmlns:a="http://ns.adobe.com/AdobeSVGViewerExtensions/3.0/"
	 x="0px" y="0px" width="18.927px" height="18.134px" viewBox="0 0 18.927 18.134" enable-background="new 0 0 18.927 18.134"
	 xml:space="preserve" preserveAspectRatio="xMinYMin">
	<path fill="#3B3A3C" d="M18.517,8.218c0.372-0.362,0.503-0.895,0.343-1.391c-0.161-0.496-0.581-0.849-1.096-0.923l-4.584-0.666
		c-0.194-0.028-0.362-0.152-0.45-0.328l-2.049-4.153C10.45,0.29,9.984,0,9.464,0c-0.52,0-0.986,0.29-1.218,0.757L6.197,4.909
		C6.11,5.085,5.94,5.209,5.746,5.237L1.162,5.903C0.647,5.977,0.227,6.331,0.066,6.827C-0.093,7.323,0.039,7.856,0.41,8.218
		l3.316,3.231c0.141,0.139,0.206,0.337,0.172,0.531l-0.783,4.566c-0.087,0.513,0.118,1.02,0.541,1.327
		c0.42,0.306,0.968,0.346,1.428,0.104l4.099-2.156c0.174-0.09,0.383-0.09,0.559,0l4.097,2.156c0.202,0.106,0.418,0.157,0.633,0.157
		c0.281,0,0.559-0.089,0.797-0.261c0.42-0.307,0.628-0.814,0.541-1.327l-0.785-4.566c-0.034-0.194,0.031-0.392,0.174-0.529
		L18.517,8.218z M14.281,12.11l0.783,4.564c0.039,0.23-0.05,0.448-0.239,0.587c-0.189,0.137-0.424,0.154-0.631,0.045l-4.099-2.154
		c-0.196-0.103-0.415-0.155-0.631-0.155c-0.217,0-0.435,0.052-0.633,0.155l-4.097,2.154c-0.207,0.109-0.442,0.092-0.631-0.045
		c-0.189-0.139-0.278-0.357-0.239-0.587l0.783-4.564c0.076-0.44-0.071-0.89-0.391-1.203L0.94,7.676
		C0.773,7.513,0.716,7.282,0.788,7.062C0.86,6.84,1.041,6.686,1.271,6.653l4.584-0.666c0.442-0.063,0.824-0.341,1.022-0.742
		l2.049-4.152C9.029,0.883,9.23,0.758,9.464,0.758c0.233,0,0.433,0.124,0.536,0.334l2.051,4.152c0.196,0.402,0.579,0.679,1.021,0.742
		l4.582,0.666c0.231,0.033,0.413,0.187,0.483,0.409c0.072,0.22,0.017,0.451-0.15,0.614l-3.316,3.231
		C14.351,11.22,14.205,11.668,14.281,12.11L14.281,12.11z M14.281,12.11"/>
</svg>
