<svg class="img-responsive-SVG" version="1.1"
	 xmlns="http://www.w3.org/2000/svg" xmlns:xlink="http://www.w3.org/1999/xlink" xmlns:a="http://ns.adobe.com/AdobeSVGViewerExtensions/3.0/"
	 x="0px" y="0px" width="25.31px" height="20.21px" viewBox="0 0 25.31 20.21" enable-background="new 0 0 25.31 20.21"
	 xml:space="preserve" preserveAspectRatio="xMinYMin">
	<path fill="#999999" d="M2.078,0C0.932,0,0,0.932,0,2.078c0,1.146,0.932,2.078,2.078,2.078s2.078-0.932,2.078-2.078
		C4.155,0.932,3.224,0,2.078,0L2.078,0z"/>
	<path fill="#999999" d="M2.078,8.358C0.932,8.358,0,9.29,0,10.436s0.932,2.078,2.078,2.078s2.078-0.932,2.078-2.078
		S3.224,8.358,2.078,8.358L2.078,8.358z"/>
	<path fill="#999999" d="M2.078,16.055C0.932,16.055,0,16.987,0,18.133c0,1.146,0.932,2.078,2.078,2.078s2.078-0.932,2.078-2.078
		C4.155,16.987,3.224,16.055,2.078,16.055L2.078,16.055z"/>
	<polygon fill="#999999" points="6.434,1.711 25.31,1.711 25.31,3.163 6.434,3.163 6.434,1.711 	"/>
	<polygon fill="#999999" points="6.434,9.697 25.31,9.697 25.31,11.149 6.434,11.149 6.434,9.697 	"/>
	<polygon fill="#999999" points="6.434,17.683 25.31,17.683 25.31,19.135 6.434,19.135 6.434,17.683 	"/>
</svg>
