<svg class="img-responsive-SVG" version="1.1"
	 xmlns="http://www.w3.org/2000/svg" xmlns:xlink="http://www.w3.org/1999/xlink" xmlns:a="http://ns.adobe.com/AdobeSVGViewerExtensions/3.0/"
	 x="0px" y="0px" width="28.824px" height="22.381px" viewBox="0 0 28.824 22.381" enable-background="new 0 0 28.824 22.381"
	 xml:space="preserve" preserveAspectRatio="xMinYMin">
	<path fill="#999999" d="M22.703,17.435c-0.255-0.255-0.382-0.589-0.382-0.923c0-0.334,0.127-0.668,0.382-0.923l1.633-1.633
		l-6.901,0c-0.721,0-1.305-0.584-1.305-1.305c0-0.721,0.584-1.305,1.305-1.305l6.989,0l-1.722-1.722
		c-0.255-0.255-0.382-0.588-0.382-0.923c0-0.333,0.127-0.668,0.382-0.922c0.313-0.314,0.747-0.433,1.153-0.361l0.001,0.001
		c0.029,0.005,0.058,0.014,0.086,0.022c0.045,0.011,0.09,0.023,0.133,0.04c0.029,0.011,0.058,0.023,0.087,0.036
		c0.046,0.02,0.089,0.044,0.133,0.07c0.023,0.014,0.046,0.026,0.068,0.041c0.064,0.045,0.127,0.094,0.184,0.151l3.895,3.895
		c0.255,0.255,0.381,0.589,0.381,0.923v0.019c0,0.334-0.127,0.668-0.381,0.922l-2.038,2.038l-1.857,1.857
		c-0.058,0.057-0.119,0.105-0.184,0.15c-0.022,0.016-0.046,0.028-0.068,0.042c-0.043,0.026-0.086,0.049-0.131,0.07
		c-0.029,0.013-0.059,0.026-0.088,0.037c-0.043,0.016-0.086,0.028-0.13,0.039c-0.03,0.007-0.059,0.017-0.09,0.023
		C23.45,17.867,23.016,17.749,22.703,17.435L22.703,17.435z"/>
	<path fill="#999999" d="M25.089,18.619v0.184c0,0.87-0.681,1.578-1.518,1.578H3.518C2.681,20.381,2,19.673,2,18.803V7.809v-1.09
		V3.578C2,2.722,2.54,2,3.178,2h3.439h0.145h1.802l2.28,2.491l0.595,0.65h0.881h11.251c0.837,0,1.518,0.708,1.518,1.578v0.013
		l2,1.946V6.719c0-1.976-1.575-3.578-3.518-3.578H12.32L9.446,0H6.763H6.618H3.178C1.423,0,0,1.601,0,3.578v3.141v1.09v10.994
		c0,1.976,1.575,3.578,3.518,3.578h20.054c1.943,0,3.518-1.601,3.518-3.578v-1.79L25.089,18.619z"/>
</svg>
