<svg class="img-responsive-SVG" version="1.1"
	 xmlns="http://www.w3.org/2000/svg" xmlns:xlink="http://www.w3.org/1999/xlink" xmlns:a="http://ns.adobe.com/AdobeSVGViewerExtensions/3.0/"
	 x="0px" y="0px" width="17.896px" height="17.903px" viewBox="0 0 17.896 17.903" enable-background="new 0 0 17.896 17.903"
	 xml:space="preserve" preserveAspectRatio="xMinYMin">
	<path fill="#3B3A3C" d="M8.945,0c2.47,0,4.705,1.005,6.329,2.62c1.617,1.626,2.622,3.861,2.622,6.331
		c0,2.47-1.005,4.707-2.622,6.331c-1.624,1.617-3.859,2.62-6.329,2.62c-2.47,0-4.706-1.003-6.323-2.62
		C0.997,13.659,0,11.422,0,8.952c0-2.47,0.997-4.706,2.62-6.331C4.24,1.005,6.475,0,8.945,0L8.945,0z M13.507,8.926
		c0.269,0,0.482,0.22,0.482,0.489c0,0.269-0.213,0.489-0.482,0.489H8.945c-0.18,0-0.337-0.104-0.419-0.248L8.518,9.65L8.511,9.635
		V9.629L8.505,9.614L8.497,9.601V9.593L8.49,9.58L8.484,9.574V9.559L8.478,9.546V9.537L8.469,9.525V9.497L8.462,9.489V3.588
		c0-0.269,0.214-0.483,0.483-0.483c0.267,0,0.487,0.214,0.487,0.483v5.338H13.507z M14.709,3.187
		c-1.475-1.477-3.515-2.383-5.764-2.383c-2.25,0-4.289,0.906-5.766,2.383C1.71,4.662,0.796,6.702,0.796,8.952
		c0,2.249,0.915,4.289,2.384,5.766c1.477,1.475,3.516,2.383,5.766,2.383c2.249,0,4.289-0.908,5.764-2.383
		c1.477-1.477,2.392-3.515,2.392-5.766C17.101,6.702,16.186,4.662,14.709,3.187L14.709,3.187z M14.586,3.31"/>
</svg>
