<svg class="img-responsive-SVG" version="1.1"
	 xmlns="http://www.w3.org/2000/svg" xmlns:xlink="http://www.w3.org/1999/xlink" xmlns:a="http://ns.adobe.com/AdobeSVGViewerExtensions/3.0/"
	 x="0px" y="0px" width="14.946px" height="18.372px" viewBox="0 0 14.946 18.372" enable-background="new 0 0 14.946 18.372"
	 xml:space="preserve" preserveAspectRatio="xMinYMin">
	<path fill="#3B3A3C" d="M7.473,15.882c0.172,0,0.312-0.14,0.312-0.312V5.295c0-0.174-0.14-0.312-0.312-0.312
		c-0.172,0-0.312,0.138-0.312,0.312V15.57C7.161,15.742,7.302,15.882,7.473,15.882L7.473,15.882z M7.473,15.882"/>
	<path fill="#3B3A3C" d="M4.359,15.882c0.172,0,0.312-0.14,0.312-0.312V5.295c0-0.174-0.14-0.312-0.312-0.312
		c-0.172,0-0.312,0.138-0.312,0.312V15.57C4.047,15.742,4.188,15.882,4.359,15.882L4.359,15.882z M4.359,15.882"/>
	<path fill="#3B3A3C" d="M10.587,15.882c0.172,0,0.312-0.14,0.312-0.312V5.295c0-0.174-0.14-0.312-0.312-0.312
		c-0.172,0-0.312,0.138-0.312,0.312V15.57C10.275,15.742,10.416,15.882,10.587,15.882L10.587,15.882z M10.587,15.882"/>
	<path fill="#3B3A3C" d="M14.637,1.869h-4.375c-0.033-0.389-0.153-1.046-0.564-1.467C9.438,0.135,9.109,0,8.718,0H5.604
		C5.215,0,4.885,0.135,4.627,0.401C4.216,0.822,4.096,1.48,4.061,1.869h-3.75C0.14,1.869,0,2.007,0,2.181
		c0,0.172,0.14,0.31,0.312,0.31h0.636l0.596,14.333c0.012,0.535,0.345,1.549,1.528,1.549h8.804c1.183,0,1.517-1.014,1.528-1.543
		L14.001,2.49h0.636c0.172,0,0.31-0.138,0.31-0.31C14.946,2.007,14.808,1.869,14.637,1.869L14.637,1.869z M5.074,0.835
		c0.139-0.143,0.313-0.211,0.531-0.211h3.114c0.219,0,0.392,0.068,0.532,0.211c0.251,0.257,0.351,0.707,0.386,1.034H4.688
		C4.723,1.542,4.823,1.092,5.074,0.835L5.074,0.835z M12.781,16.809c-0.002,0.096-0.046,0.941-0.906,0.941H3.072
		c-0.852,0-0.902-0.847-0.907-0.947L1.571,2.49h11.807L12.781,16.809z M12.781,16.809"/>
</svg>
