<svg class="img-responsive-SVG" version="1.1"
	 xmlns="http://www.w3.org/2000/svg" xmlns:xlink="http://www.w3.org/1999/xlink" xmlns:a="http://ns.adobe.com/AdobeSVGViewerExtensions/3.0/"
	 x="0px" y="0px" width="18.537px" height="25.278px" viewBox="0 0 18.537 25.278" enable-background="new 0 0 18.537 25.278"
	 xml:space="preserve" preserveAspectRatio="xMinYMin">
	<path fill-rule="evenodd" clip-rule="evenodd" fill="#999999" d="M2.573,23.562c0,0,0.377,1.716,2.314,1.716h8.763
		c1.938,0,2.315-1.716,2.315-1.716l1.73-16.821H0.843L2.573,23.562z M12.639,9.269c0-0.465,0.377-0.843,0.843-0.843
		c0.465,0,0.843,0.377,0.843,0.843l-0.843,12.639c0,0.465-0.377,0.843-0.843,0.843c-0.465,0-0.843-0.377-0.843-0.843L12.639,9.269z
		 M8.426,9.269c0-0.465,0.377-0.843,0.843-0.843c0.465,0,0.842,0.377,0.842,0.843v12.639c0,0.465-0.377,0.843-0.842,0.843
		c-0.466,0-0.843-0.377-0.843-0.843V9.269z M5.056,8.426c0.465,0,0.842,0.377,0.842,0.843L6.74,21.907
		c0,0.465-0.377,0.842-0.843,0.842c-0.465,0-0.842-0.377-0.842-0.842L4.213,9.269C4.213,8.803,4.59,8.426,5.056,8.426L5.056,8.426z
		 M17.189,3.372h-3.707V1.685C13.482,0.407,13.068,0,11.796,0H6.74C5.574,0,5.056,0.565,5.056,1.685v1.686H1.348
		C0.603,3.372,0,3.938,0,4.636c0,0.699,0.603,1.264,1.348,1.264h15.84c0.745,0,1.348-0.566,1.348-1.264
		C18.537,3.938,17.934,3.372,17.189,3.372L17.189,3.372z M11.796,3.372H6.74l0-1.686h5.055V3.372z M11.796,3.372"/>
</svg>
