<svg class="img-responsive-SVG" version="1.1"
	 xmlns="http://www.w3.org/2000/svg" xmlns:xlink="http://www.w3.org/1999/xlink" xmlns:a="http://ns.adobe.com/AdobeSVGViewerExtensions/3.0/"
	 x="0px" y="0px" width="21.826px" height="17.824px" viewBox="0 0 21.826 17.824" enable-background="new 0 0 21.826 17.824"
	 xml:space="preserve" preserveAspectRatio="xMinYMin">
	<path fill="#999999" d="M20.913,5.821h-1.27V3.54c0-0.549-0.446-0.993-0.993-0.993H9.645L7.826,0H0.995C0.446,0,0,0.446,0,0.994
		v15.892h0.002C0,17.09,0.064,17.291,0.192,17.458c0.177,0.232,0.447,0.366,0.741,0.366h16.282c0.421,0,0.791-0.282,0.892-0.659
		l3.719-10.199V6.901C21.826,6.275,21.442,5.821,20.913,5.821L20.913,5.821z M0.728,0.994c0-0.147,0.119-0.266,0.266-0.266h6.456
		L9.27,3.273h9.378c0.147,0,0.266,0.119,0.266,0.266v2.281H4.631c-0.052,0-0.103,0.004-0.155,0.012
		C4.122,5.893,3.828,6.151,3.741,6.48l-3.012,8.216V0.994z M17.414,16.945"/>
</svg>
