<svg class="img-responsive-SVG" version="1.1"
	 xmlns="http://www.w3.org/2000/svg" xmlns:xlink="http://www.w3.org/1999/xlink" xmlns:a="http://ns.adobe.com/AdobeSVGViewerExtensions/3.0/"
	 x="0px" y="0px" width="21.792px" height="16.951px" viewBox="0 0 21.792 16.951" enable-background="new 0 0 21.792 16.951"
	 xml:space="preserve" preserveAspectRatio="xMinYMin">
	<path fill="#999999" d="M18.996,6.393c0.031-0.246,0.072-0.488,0.072-0.742C19.068,2.53,16.63,0,13.62,0
		c-1.78,0-3.345,0.898-4.339,2.268c-0.358-0.09-0.726-0.149-1.109-0.149c-2.634,0-4.767,2.213-4.767,4.944
		c0,0.077,0.019,0.146,0.021,0.224C1.451,7.89,0,9.763,0,12.007c0,2.731,2.134,4.944,4.767,4.944h11.577
		c3.01,0,5.448-2.529,5.448-5.65C21.792,9.185,20.657,7.361,18.996,6.393L18.996,6.393z M12.84,10.901v6.05H8.951v-6.05H5.063
		l5.833-6.05l5.833,6.05H12.84z M12.258,9.888"/>
</svg>
