<svg class="img-responsive-SVG" version="1.1"
	 xmlns="http://www.w3.org/2000/svg" xmlns:xlink="http://www.w3.org/1999/xlink" xmlns:a="http://ns.adobe.com/AdobeSVGViewerExtensions/3.0/"
	 x="0px" y="0px" width="287.689px" height="100.561px" viewBox="0 0 287.689 100.561" enable-background="new 0 0 287.689 100.561"
	 xml:space="preserve" preserveAspectRatio="xMinYMin">
<path opacity="0.3" fill="#999999" d="M20.829,43.915l-10.463-3.756c-0.231-0.083-0.486,0.037-0.569,0.269
	c-0.083,0.231,0.038,0.487,0.269,0.569l10.463,3.756c0.231,0.083,0.487-0.038,0.569-0.269
	C21.181,44.254,21.061,43.998,20.829,43.915L20.829,43.915z M20.829,43.915 M11.268,37.647l4.185,1.503
	c0.231,0.083,0.486-0.035,0.569-0.269c0.083-0.231-0.038-0.484-0.27-0.567l-4.185-1.503c-0.231-0.083-0.486,0.035-0.569,0.266
	C10.916,37.311,11.037,37.564,11.268,37.647L11.268,37.647z M11.268,37.647 M19.628,47.262L9.165,43.506
	c-0.231-0.083-0.487,0.038-0.569,0.269c-0.083,0.231,0.038,0.487,0.269,0.569L19.327,48.1c0.231,0.083,0.486-0.037,0.569-0.269
	C19.979,47.601,19.859,47.345,19.628,47.262L19.628,47.262z M19.628,47.262 M18.425,50.612L7.962,46.856
	c-0.231-0.083-0.486,0.035-0.569,0.269c-0.083,0.231,0.039,0.484,0.27,0.567l10.463,3.756c0.231,0.083,0.486-0.035,0.569-0.266
	C18.777,50.948,18.656,50.695,18.425,50.612L18.425,50.612z M18.425,50.612 M17.223,53.959L6.76,50.203
	c-0.231-0.083-0.487,0.038-0.569,0.269c-0.083,0.231,0.038,0.487,0.269,0.569l10.463,3.756c0.231,0.083,0.487-0.038,0.569-0.269
	C17.575,54.298,17.454,54.042,17.223,53.959L17.223,53.959z M17.223,53.959 M24.068,40.157l2.192-6.104L8.264,27.593L0,50.611
	l2.093,0.751l-0.751,2.093l17.995,6.461l6.073-16.914L24.068,40.157z M21.229,36.222l2.84,6.021l-4.431-1.591L21.229,36.222z
	 M1.139,50.074l7.662-21.342l16.322,5.86l-1.59,4.43l-2.036-4.316L9.606,30.436L2.393,50.524L1.139,50.074z M2.48,52.917
	l7.662-21.342l10.463,3.756l-2.103,5.859l5.859,2.103l-5.559,15.483L2.48,52.917z M2.48,52.917"/>
<path opacity="0.3" fill="#999999" d="M271.1,39.737l-1.412-3.825l-0.122-0.324l-10.661-2.917l-7.185,26.263l29.733,8.134
	l6.235-22.793L271.1,39.737z M286.426,44.993l-0.678,2.478l-13.112-3.587l-1.096-2.963L286.426,44.993z M252.984,58.216
	l6.643-24.281l9.158,2.505l1.529,4.145l0.007,0.002l1.435,3.883c0.06,0.162,0.193,0.274,0.348,0.316l-0.005,0.017l13.378,3.66
	l-4.745,17.344L252.984,58.216z M252.984,58.216 M264.66,48.628l6.937,1.898c0.274,0.075,0.557-0.087,0.632-0.36
	c0.075-0.274-0.087-0.557-0.36-0.632l-6.937-1.898c-0.273-0.075-0.557,0.087-0.632,0.36
	C264.225,48.269,264.387,48.553,264.66,48.628L264.66,48.628z M264.66,48.628 M275.021,53.592l-10.903-2.983
	c-0.273-0.075-0.556,0.084-0.632,0.36c-0.075,0.273,0.088,0.554,0.361,0.629l10.903,2.983c0.273,0.075,0.556-0.084,0.631-0.357
	C275.457,53.948,275.294,53.667,275.021,53.592L275.021,53.592z M275.021,53.592 M274.207,56.566l-10.903-2.983
	c-0.273-0.075-0.556,0.084-0.631,0.357c-0.076,0.276,0.087,0.557,0.36,0.632l10.903,2.983c0.273,0.075,0.556-0.084,0.632-0.36
	C274.643,56.922,274.48,56.641,274.207,56.566L274.207,56.566z M274.207,56.566"/>
<path fill="#FF4E00" d="M131.366,38.839c-0.341,19.098-0.667,39.672-0.979,61.722h-9.663V75.744h-12.132V98.56l-11.621-0.043
    c0.341-10.415,0.511-20.602,0.511-30.563c0-9.932-0.17-19.638-0.511-29.116h11.11l-0.468,24.817l12.132,0.511V37.817
    L131.366,38.839z"/>
<path fill="#FF4E00" d="M162.483,38.584v12.004l-16.814-0.681v13.962l15.111-0.426l0.383,11.536h-13.494V85.79h17.665v12.089
    l-29.456-0.426c0.312-7.974,0.468-16.005,0.468-24.093c0-11.209-0.298-22.518-0.894-33.926
    C141.865,39.179,150.876,38.896,162.483,38.584z"/>
<path fill="#FF4E00" d="M180.318,98.816l0.468-26.391c-6.47-13.678-11.466-24.802-14.984-33.372l12.004-1.234l8.13,23.752
    c3.661-11.408,6.598-19.907,8.811-25.498h11.621c-6.954,17.112-11.947,29.499-14.984,37.161v25.072L180.318,98.816z"/>
<path opacity="0.5" fill="#999999" d="M234.029,29.459c-0.114,1.255-2.068,1.374-2.714,1.455c-1.283,0.161-2.967,0.001-4.768-0.163
	l-0.001,0c-2.34-0.213-4.439-0.505-5.669-1.057c-1.309,0.32-3.451,0.496-5.79,0.282c-2.196-0.2-7.286-0.86-7.102-2.886
	c0.17-1.861,2.154-4.112,4.976-4.954c-0.81-1.063-1.264-2.488-1.146-3.778c0.216-2.374,2.322-4.126,4.694-3.91
	c2.371,0.216,4.124,2.325,3.907,4.699c-0.118,1.291-0.821,2.618-1.811,3.517c1.048,0.54,1.987,1.317,2.708,2.24
	c0.875-0.778,1.94-1.371,3.067-1.713c-0.812-1.063-1.265-2.495-1.148-3.787c0.216-2.374,2.322-4.129,4.694-3.913
	c2.371,0.216,4.124,2.323,3.907,4.697c-0.118,1.289-0.82,2.615-1.808,3.514C232.653,25.043,234.199,27.598,234.029,29.459z
	 M232.874,29.154c0.143-1.591-1.638-3.9-4.221-4.809c-0.219-0.077-0.375-0.251-0.394-0.483c-0.019-0.232,0.097-0.441,0.301-0.553
	c1.102-0.61,1.985-1.966,2.101-3.232c0.157-1.726-1.117-3.254-2.84-3.412c-1.723-0.157-3.254,1.12-3.411,2.846
	c-0.116,1.267,0.509,2.767,1.485,3.565c0.18,0.147,0.257,0.387,0.197,0.611c-0.061,0.225-0.248,0.393-0.478,0.429
	c-1.489,0.235-2.928,0.999-3.949,2.095c-0.249,0.267-0.733,0.223-0.93-0.085c-0.805-1.263-2.083-2.274-3.505-2.774
	c-0.219-0.077-0.372-0.276-0.392-0.508c-0.019-0.232,0.099-0.453,0.302-0.565c1.102-0.61,1.986-1.972,2.102-3.238
	c0.157-1.726-1.117-3.258-2.839-3.415c-1.724-0.157-3.254,1.119-3.412,2.844c-0.116,1.267,0.509,2.766,1.486,3.564
	c0.18,0.147,0.257,0.385,0.196,0.61c-0.061,0.224-0.248,0.39-0.478,0.427c-2.705,0.427-4.889,2.538-5.035,4.143
	c0.104,0.364,2.039,1.257,6.032,1.621c2.302,0.21,4.437,0.123,5.567-0.205c0.071-0.021,0.148-0.057,0.22-0.05
	c0.072,0.007,0.158-0.13,0.225-0.096c1.053,0.526,3.157,0.769,5.459,0.979c0,0,0.001,0,0.001,0
	C230.658,29.828,232.702,29.507,232.874,29.154z"/>
<g opacity="0.5">
	<polygon fill="#999999" points="88.359,13.263 85.492,7.169 84.252,7.412 83.882,14.13 81.305,7.99 79.837,8.278 83.396,16.019 
		84.818,15.74 85.253,9.198 88.093,15.097 89.508,14.82 89.879,6.308 88.411,6.596 	"/>
	<path fill="#999999" d="M87.786,22.215c-5.988,1.175-11.815-2.74-12.99-8.729c-1.175-5.987,2.741-11.814,8.728-12.989
		c5.987-1.175,11.814,2.741,12.989,8.728C97.689,15.213,93.773,21.04,87.786,22.215z M83.781,1.803
		c-5.268,1.034-8.712,6.159-7.679,11.427s6.16,8.713,11.428,7.679c5.267-1.034,8.711-6.16,7.678-11.428S89.048,0.77,83.781,1.803z"
		/>
</g>
	<path fill="#999999" d="M151.496,31.091l-14.187-3.881c-0.355-0.097-0.724,0.109-0.821,0.465c-0.098,0.359,0.114,0.725,0.469,0.822
		l13.102,3.584c0.606-0.018,1.222-0.036,1.848-0.055c0.02-0.039,0.047-0.073,0.059-0.118
		C152.063,31.554,151.851,31.188,151.496,31.091z"/>
	<path fill="#999999" d="M139.073,20.762l9.026,2.469c0.356,0.097,0.725-0.114,0.822-0.469c0.097-0.356-0.113-0.725-0.469-0.822
		l-9.026-2.469c-0.355-0.097-0.725,0.113-0.822,0.469C138.507,20.295,138.717,20.665,139.073,20.762z"/>
	<path fill="#999999" d="M152.554,27.221l-14.187-3.881c-0.355-0.097-0.724,0.109-0.822,0.469c-0.097,0.355,0.115,0.721,0.47,0.818
		l14.187,3.881c0.355,0.097,0.724-0.109,0.821-0.465C153.122,27.684,152.91,27.319,152.554,27.221z"/>
	<path fill="#999999" d="M147.453,9.194l-1.837-4.977l-0.158-0.422L131.586,0L123,31.385l1.355,0.119l8.169-29.86l11.917,3.26
		l1.99,5.393l0.009,0.002l1.867,5.052c0.078,0.211,0.252,0.356,0.453,0.412l-0.006,0.023l17.407,4.762l-3.184,11.64
		c0.143,0.07,0.284,0.144,0.417,0.231c0.236-0.07,0.475-0.136,0.724-0.161l0.233-0.024l4.688-17.135L147.453,9.194z M149.451,14.589
		l-1.426-3.855l19.369,5.299l-0.882,3.224L149.451,14.589z"/>
	<path fill="#999999" d="M209.156,96.43c0.468,0.24,1.006,0.303,1.517,0.178c1.172-0.288,1.891-1.47,1.605-2.643l-6.522-26.79
		c-0.203-0.832-0.871-1.471-1.711-1.636c-0.841-0.158-1.697,0.186-2.194,0.882l-7.269,10.258l-0.472,0.115v1.739l1.176-0.286
		c0.2-0.049,0.374-0.169,0.492-0.337l7.459-10.513c0.073-0.116,0.191-0.197,0.326-0.223c0.27-0.053,0.532,0.123,0.585,0.393
		l6.52,26.782c0.038,0.132,0.021,0.273-0.049,0.392c-0.139,0.237-0.445,0.317-0.682,0.178l-11.457-5.908
		c-0.182-0.096-0.392-0.122-0.592-0.073l-3.778,0.92v1.748l3.876-0.944L209.156,96.43z"/>
	<path fill="#999999" d="M216.237,78.686c-0.545-2.204-2.354-3.869-4.595-4.23c-0.507-0.043-0.952,0.334-0.995,0.841
		c-0.038,0.451,0.257,0.862,0.697,0.971c1.517,0.247,2.738,1.378,3.1,2.872c0,0,0.032,0.131,0.036,0.148
		c0.374,1.496-0.18,3.072-1.408,4.004c-0.407,0.305-0.49,0.882-0.185,1.289c0.002,0.002,0.003,0.005,0.005,0.007
		c0.313,0.393,0.878,0.473,1.288,0.182c1.81-1.361,2.636-3.668,2.102-5.869C216.281,78.901,216.245,78.719,216.237,78.686z"/>
	<path fill="#999999" d="M212.682,67.62c-0.106,0.026-0.207,0.072-0.298,0.133c-0.416,0.292-0.517,0.866-0.225,1.283
		c0.135,0.192,0.338,0.326,0.568,0.373c5.934,1.144,9.817,6.882,8.673,12.817c-0.497,2.578-1.905,4.892-3.966,6.518
		c-0.401,0.313-0.471,0.892-0.158,1.293c0.001,0.002,0.003,0.004,0.004,0.005c0.322,0.39,0.894,0.458,1.298,0.154
		c3.922-3.099,5.682-8.197,4.509-13.056l0,0c-1.203-4.85-5.105-8.566-10.008-9.53C212.948,67.584,212.812,67.588,212.682,67.62z"/>
	<path fill="#999999" d="M229.852,75.311c-1.948-7.373-7.914-13.001-15.388-14.517c-0.504-0.098-0.993,0.231-1.091,0.735
		s0.231,0.993,0.735,1.091l0,0c9.714,1.875,16.07,11.269,14.195,20.984c-0.814,4.219-3.117,8.004-6.49,10.666
		c-0.394,0.32-0.459,0.897-0.145,1.296c0.322,0.39,0.896,0.455,1.296,0.145c5.946-4.778,8.658-12.522,6.993-19.966
		c0,0-0.018-0.074-0.022-0.09l-0.05-0.205"/>
	<path fill="#999999" d="M71.385,84.447c0.098,0.449,0.545,0.735,0.994,0.637l19.687-4.314c0.01-0.573,0.018-1.143,0.026-1.715
		l-20.071,4.398C71.573,83.552,71.287,83.998,71.385,84.447z"/>
	<path fill="#999999" d="M86.895,38.371l-35.019,7.674l9.816,44.795l4.072-0.892l0.892,4.072l25.245-5.532
		c0.015-0.574,0.027-1.145,0.041-1.718L67.93,92.031l-9.101-41.533l20.361-4.462l2.498,11.401l10.451-2.29
		c-0.013-1.079-0.025-2.159-0.042-3.233l-2.599-1.665L86.895,38.371z M56.841,49.225l8.566,39.091l-2.441,0.535l-9.101-41.533
		l31.762-6.96l1.889,8.621l-7.535-4.825L56.841,49.225z M82.957,55.451l-1.889-8.622l10.511,6.733L82.957,55.451z"/>
	<path fill="#999999" d="M75.449,56.241c-0.098-0.449-0.543-0.73-0.993-0.632l-8.145,1.785c-0.449,0.098-0.736,0.54-0.638,0.989
		c0.099,0.454,0.545,0.735,0.994,0.637l8.145-1.785C75.262,57.137,75.549,56.695,75.449,56.241z"/>
	<path fill="#999999" d="M67.102,64.902c0.098,0.449,0.545,0.735,0.994,0.637l20.361-4.462c0.45-0.099,0.735-0.545,0.637-0.994
		c-0.099-0.45-0.544-0.735-0.994-0.637l-20.361,4.462C67.29,64.006,67.003,64.452,67.102,64.902z"/>
	<path fill="#999999" d="M69.958,77.934c0.098,0.449,0.544,0.73,0.993,0.632l20.361-4.462c0.45-0.099,0.736-0.54,0.638-0.989
		c-0.099-0.454-0.544-0.735-0.994-0.637L70.595,76.94C70.146,77.038,69.858,77.48,69.958,77.934z"/>
	<path fill="#999999" d="M68.529,71.415c0.099,0.45,0.545,0.735,0.994,0.637l20.361-4.462c0.45-0.099,0.735-0.544,0.637-0.994
		c-0.098-0.449-0.544-0.735-0.994-0.637l-20.361,4.462C68.717,70.519,68.431,70.966,68.529,71.415z"/>
		<path fill="#FF8A00" d="M131.366,37.59c-0.341,19.098-0.667,39.672-0.979,61.722h-9.663V74.496h-12.132v22.816l-11.621-0.043
			c0.341-10.415,0.511-20.602,0.511-30.563c0-9.932-0.17-19.638-0.511-29.116h11.11l-0.468,24.817l12.132,0.511V36.569
			L131.366,37.59z"/>
		<path fill="#FF8A00" d="M162.483,37.335v12.004l-16.814-0.681V62.62l15.111-0.426l0.383,11.536h-13.494v10.812h17.665v12.089
			l-29.456-0.426c0.312-7.974,0.468-16.005,0.468-24.093c0-11.209-0.298-22.518-0.894-33.926
			C141.865,37.931,150.876,37.647,162.483,37.335z"/>
		<path fill="#FF8A00" d="M180.318,97.567l0.468-26.391c-6.47-13.678-11.466-24.802-14.984-33.372l12.004-1.234l8.13,23.752
			c3.661-11.408,6.598-19.907,8.811-25.498h11.621c-6.954,17.112-11.947,29.499-14.984,37.161v25.072L180.318,97.567z"/>
</svg>
