<svg class="img-responsive-SVG" version="1.1"
	 xmlns="http://www.w3.org/2000/svg" xmlns:xlink="http://www.w3.org/1999/xlink" xmlns:a="http://ns.adobe.com/AdobeSVGViewerExtensions/3.0/"
	 x="0px" y="0px" width="38.837px" height="31.589px" viewBox="0 0 38.837 31.589" enable-background="new 0 0 38.837 31.589"
	 xml:space="preserve" preserveAspectRatio="xMinYMin">
	<path fill="#999999" d="M18.128,29.736c-0.461,0.001-0.908-0.164-1.257-0.466l-8.303-7.216H1.915
		C0.859,22.051,0.004,21.196,0,20.14v-8.761c0.004-1.056,0.859-1.911,1.915-1.915h6.654l8.303-7.216
		c0.567-0.489,1.366-0.604,2.048-0.296l0,0c0.68,0.314,1.116,0.995,1.116,1.745v24.124c0,1.058-0.857,1.915-1.915,1.915
		L18.128,29.736z M1.944,10.943c-0.241,0-0.436,0.195-0.436,0.436l0,0v8.754c0,0.241,0.195,0.436,0.436,0.436l0,0h6.898
		c0.18,0,0.353,0.066,0.488,0.185l8.517,7.393c0.173,0.168,0.449,0.163,0.617-0.01c0.084-0.086,0.128-0.203,0.123-0.323V3.697
		c0.011-0.241-0.176-0.444-0.416-0.455c-0.12-0.005-0.237,0.039-0.323,0.123L9.33,10.758c-0.135,0.119-0.308,0.185-0.488,0.185
		L1.944,10.943z"/>
	<path fill="#999999" d="M26.564,15.652c-0.007-1.986-1.201-3.776-3.031-4.547c-0.422-0.141-0.879,0.087-1.02,0.509
		c-0.125,0.375,0.04,0.786,0.391,0.97c1.238,0.524,2.043,1.738,2.041,3.083c0,0,0,0.118,0,0.133
		c0.009,1.349-0.788,2.574-2.026,3.113c-0.409,0.175-0.599,0.648-0.424,1.058c0.001,0.002,0.002,0.005,0.003,0.007
		c0.185,0.399,0.649,0.584,1.057,0.421c1.82-0.782,3-2.573,3.002-4.554C26.557,15.844,26.564,15.682,26.564,15.652z"/>
	<path fill="#999999" d="M25.832,5.509c-0.096,0-0.191,0.018-0.281,0.052c-0.414,0.162-0.619,0.63-0.457,1.044
		c0.075,0.191,0.22,0.347,0.405,0.435c4.808,2.201,6.921,7.883,4.721,12.69c-0.956,2.089-2.632,3.764-4.721,4.721
		c-0.405,0.184-0.585,0.661-0.402,1.066c0.001,0.002,0.002,0.004,0.003,0.006c0.193,0.398,0.665,0.574,1.072,0.399
		c3.975-1.823,6.527-5.792,6.536-10.166l0,0c-0.019-4.372-2.567-8.339-6.536-10.173C26.065,5.534,25.949,5.509,25.832,5.509z"/>
	<path fill="#999999" d="M38.837,15.6C38.706,8.929,34.8,2.91,28.76,0.075c-0.408-0.188-0.892-0.009-1.079,0.399
		s-0.009,0.892,0.399,1.079l0,0c7.87,3.604,11.329,12.906,7.725,20.776c-1.565,3.418-4.307,6.159-7.725,7.725
		c-0.402,0.19-0.576,0.668-0.392,1.072c0.193,0.398,0.667,0.572,1.072,0.392c6.044-2.831,9.952-8.853,10.077-15.526
		c0,0,0-0.067,0-0.081v-0.185"/>
</svg>
