<svg class="img-responsive-SVG" version="1.1"
	 xmlns="http://www.w3.org/2000/svg" xmlns:xlink="http://www.w3.org/1999/xlink" xmlns:a="http://ns.adobe.com/AdobeSVGViewerExtensions/3.0/"
	 x="0px" y="0px" width="35.237px" height="38.73px" viewBox="0 0 35.237 38.73" enable-background="new 0 0 35.237 38.73"
	 xml:space="preserve" preserveAspectRatio="xMinYMin">
	<path fill="#999999" d="M7.44,10.02c0-0.319,0.26-0.666,0.579-0.666h5.783c0.32,0,0.579,0.347,0.579,0.666
		c0,0.322-0.26,0.67-0.579,0.67H8.019C7.7,10.69,7.44,10.342,7.44,10.02z M35.237,30.479c0,4.557-3.694,8.252-8.252,8.252
		c-2.995,0-5.61-1.601-7.056-3.989H2.672v-3.34H0V0h24.72v7.629l3.34,3.433v11.243C32.108,22.833,35.237,26.287,35.237,30.479z
		 M20.043,4.6v6.089h5.665L20.043,4.6z M2.672,2.004h16.574L19.34,2.1l4.044,4.156V1.336H1.336v28.728h1.336V2.004z M7.44,28.728
		c0-0.319,0.26-0.668,0.579-0.668h11.077c0.39-1.272,1.08-2.412,1.986-3.34H8.019c-0.319,0-0.579-0.348-0.579-0.666
		c0-0.322,0.26-0.67,0.579-0.67h14.458c0.08,0,0.156,0.019,0.225,0.052c1.18-0.719,2.551-1.149,4.022-1.195V12.026h-8.017V3.34
		H4.009v30.064h15.269c-0.346-0.911-0.544-1.894-0.544-2.926c0-0.368,0.032-0.727,0.079-1.082H8.019
		C7.7,29.396,7.44,29.047,7.44,28.728z M34.017,30.479c0-3.877-3.154-7.032-7.031-7.032s-7.031,3.154-7.031,7.032
		s3.154,7.031,7.031,7.031S34.017,34.356,34.017,30.479z M8.019,20.043h14.458c0.32,0,0.579-0.349,0.579-0.668
		c0-0.319-0.26-0.668-0.579-0.668H8.019c-0.319,0-0.579,0.349-0.579,0.668C7.44,19.694,7.7,20.043,8.019,20.043z M8.019,15.366
		h14.458c0.32,0,0.579-0.349,0.579-0.668c0-0.32-0.26-0.668-0.579-0.668H8.019c-0.319,0-0.579,0.349-0.579,0.668
		C7.44,15.017,7.7,15.366,8.019,15.366z"/>
		<path fill="#999999" d="M26.985,29.578l1.309-2.25h1.249l-1.882,3.088l1.925,3.139h-1.262l-1.339-2.284l-1.343,2.284h-1.257
			l1.929-3.139l-1.886-3.088h1.249L26.985,29.578z"/>
</svg>
