<svg class="img-responsive-SVG favorite-decorate" version="1.1"
	 xmlns="http://www.w3.org/2000/svg" xmlns:xlink="http://www.w3.org/1999/xlink" xmlns:a="http://ns.adobe.com/AdobeSVGViewerExtensions/3.0/"
	 x="0px" y="0px" width="26.019px" height="24.889px" viewBox="0 0 26.019 24.889" enable-background="new 0 0 26.019 24.889"
	 xml:space="preserve" preserveAspectRatio="xMinYMin">
<path fill="#FFE108" stroke="#FFFFFF" stroke-linecap="round" stroke-linejoin="round" stroke-miterlimit="10" d="M12.144,1.04
	c0.163-0.333,0.498-0.54,0.867-0.54s0.706,0.208,0.87,0.54l3.112,6.312c0.142,0.285,0.414,0.482,0.73,0.53l6.968,1.012
	c0.364,0.053,0.667,0.308,0.781,0.659c0.113,0.35,0.018,0.735-0.246,0.993l-5.039,4.913c-0.229,0.221-0.332,0.542-0.279,0.856
	l1.188,6.939c0.063,0.364-0.087,0.73-0.385,0.949c-0.298,0.216-0.693,0.245-1.02,0.074l-6.23-3.276c-0.282-0.15-0.619-0.15-0.901,0
	l-6.233,3.273c-0.325,0.174-0.72,0.145-1.02-0.071c-0.298-0.219-0.445-0.586-0.385-0.949l1.188-6.939
	c0.055-0.314-0.05-0.635-0.277-0.856l-5.041-4.913c-0.264-0.258-0.359-0.643-0.246-0.993C0.66,9.202,0.964,8.947,1.33,8.894
	l6.966-1.012c0.316-0.047,0.59-0.245,0.73-0.53L12.144,1.04z M12.144,1.04"/>
</svg>
