<svg class="img-responsive-SVG" version="1.1"
	 xmlns="http://www.w3.org/2000/svg" xmlns:xlink="http://www.w3.org/1999/xlink" xmlns:a="http://ns.adobe.com/AdobeSVGViewerExtensions/3.0/"
	 x="0px" y="0px" width="39.528px" height="34.915px" viewBox="0 0 39.528 34.915" enable-background="new 0 0 39.528 34.915"
	 xml:space="preserve" preserveAspectRatio="xMinYMin">
<path fill="#999999" d="M17.474,4.613l-3.04-4.253L14.173,0H0v34.915h39.528V4.613H17.474z M38.209,5.928v3.294H20.777l-2.358-3.294
	H38.209z M1.319,33.6V1.319h12.175l3.294,4.609h0.009l3.088,4.317c0.129,0.18,0.332,0.273,0.538,0.273v0.023h17.785V33.6H1.319z
	 M1.319,33.6 M12.516,17.789h9.222c0.364,0,0.66-0.296,0.66-0.66c0-0.364-0.296-0.66-0.66-0.66h-9.222
	c-0.363,0-0.66,0.296-0.66,0.66C11.857,17.493,12.153,17.789,12.516,17.789L12.516,17.789z M12.516,17.789 M27.012,20.424H12.516
	c-0.363,0-0.66,0.292-0.66,0.66c0,0.363,0.296,0.656,0.66,0.656h14.495c0.363,0,0.66-0.292,0.66-0.656
	C27.671,20.716,27.375,20.424,27.012,20.424L27.012,20.424z M27.012,20.424 M27.012,24.377H12.516c-0.363,0-0.66,0.292-0.66,0.656
	c0,0.367,0.296,0.66,0.66,0.66h14.495c0.363,0,0.66-0.292,0.66-0.66C27.671,24.67,27.375,24.377,27.012,24.377L27.012,24.377z
	 M27.012,24.377"/>
</svg>
