<svg class="img-responsive-SVG" version="1.1"
	 xmlns="http://www.w3.org/2000/svg" xmlns:xlink="http://www.w3.org/1999/xlink" xmlns:a="http://ns.adobe.com/AdobeSVGViewerExtensions/3.0/"
	 x="0px" y="0px" width="19.205px" height="34.805px" viewBox="0 0 19.205 34.805" enable-background="new 0 0 19.205 34.805"
	 xml:space="preserve" preserveAspectRatio="xMinYMin">
<path fill="#999999" d="M18.604,16.801c-0.332,0-0.601,0.27-0.601,0.601v3.601c0,4.633-3.768,8.401-8.401,8.401
	c-4.633,0-8.401-3.768-8.401-8.401v-3.601c0-0.331-0.27-0.601-0.601-0.601C0.269,16.801,0,17.072,0,17.402v3.601
	c0,5.093,3.988,9.26,9.002,9.57v3.033H6.001c-0.331,0-0.601,0.266-0.601,0.601c0,0.331,0.27,0.597,0.601,0.597h7.203
	c0.331,0,0.597-0.266,0.597-0.597c0-0.335-0.266-0.601-0.597-0.601h-3.001v-3.033c5.013-0.311,9.002-4.478,9.002-9.57v-3.601
	C19.205,17.072,18.935,16.801,18.604,16.801L18.604,16.801z M18.604,16.801 M9.602,27.606c3.639,0,6.602-2.962,6.602-6.602V6.602
	C16.204,2.962,13.241,0,9.602,0c-3.64,0-6.602,2.962-6.602,6.602v14.402C3.001,24.643,5.963,27.606,9.602,27.606L9.602,27.606z
	 M4.202,6.602c0-2.98,2.423-5.4,5.4-5.4s5.4,2.42,5.4,5.4v14.402c0,2.977-2.423,5.4-5.4,5.4s-5.4-2.423-5.4-5.4V6.602z M4.202,6.602
	"/>
</svg>
