<svg class="img-responsive-SVG" version="1.1"
	 xmlns="http://www.w3.org/2000/svg" xmlns:xlink="http://www.w3.org/1999/xlink" xmlns:a="http://ns.adobe.com/AdobeSVGViewerExtensions/3.0/"
	 x="0px" y="0px" width="27.549px" height="34.438px" viewBox="0 0 27.549 34.438" enable-background="new 0 0 27.549 34.438"
	 xml:space="preserve" preserveAspectRatio="xMinYMin">
<path fill="#999999" d="M22.384,14.349H8.035c-0.316,0-0.575,0.258-0.575,0.575c0,0.316,0.258,0.575,0.575,0.575h14.349
	c0.317,0,0.575-0.258,0.575-0.575C22.959,14.607,22.701,14.349,22.384,14.349L22.384,14.349z M22.384,14.349 M8.035,10.905h5.74
	c0.317,0,0.575-0.255,0.575-0.575c0-0.316-0.258-0.571-0.575-0.571h-5.74c-0.316,0-0.575,0.255-0.575,0.571
	C7.46,10.65,7.718,10.905,8.035,10.905L8.035,10.905z M8.035,10.905 M22.384,18.939H8.035c-0.316,0-0.575,0.258-0.575,0.575
	c0,0.317,0.258,0.575,0.575,0.575h14.349c0.317,0,0.575-0.258,0.575-0.575C22.959,19.198,22.701,18.939,22.384,18.939L22.384,18.939
	z M22.384,18.939 M22.384,23.533H8.035c-0.316,0-0.575,0.255-0.575,0.575c0,0.316,0.258,0.571,0.575,0.571h14.349
	c0.317,0,0.575-0.255,0.575-0.571C22.959,23.788,22.701,23.533,22.384,23.533L22.384,23.533z M22.384,23.533 M22.384,28.124H8.035
	c-0.316,0-0.575,0.258-0.575,0.575c0,0.316,0.258,0.575,0.575,0.575h14.349c0.317,0,0.575-0.258,0.575-0.575
	C22.959,28.382,22.701,28.124,22.384,28.124L22.384,28.124z M22.384,28.124 M24.679,8.371V0H0v31.568h2.87v2.87h24.679V11.241
	L24.679,8.371z M19.514,4.828l6.076,6.076h-6.076V4.828z M1.149,30.419V1.149h22.384v6.075L19.178,2.87H2.87v27.549H1.149z
	 M4.019,33.288V4.019h14.349v8.035h8.035v21.235H4.019z M4.019,33.288"/>
</svg>
