<svg class="img-responsive-SVG" version="1.1"
	 xmlns="http://www.w3.org/2000/svg" xmlns:xlink="http://www.w3.org/1999/xlink" xmlns:a="http://ns.adobe.com/AdobeSVGViewerExtensions/3.0/"
	 x="0px" y="0px" width="28.268px" height="38.395px" viewBox="0 0 28.268 38.395" enable-background="new 0 0 28.268 38.395"
	 xml:space="preserve" preserveAspectRatio="xMinYMin">
<path fill="#999999" d="M7.572,9.691c0-0.308,0.252-0.644,0.56-0.644h5.594c0.309,0,0.56,0.336,0.56,0.644
	c0,0.312-0.251,0.648-0.56,0.648H8.132C7.823,10.339,7.572,10.003,7.572,9.691z M3.231,30.371H0V0h24.556v7.887l0.86,0.946
	l1.724,1.866v0.286v11.107c0.037-0.002,0.082-0.004,0.152-0.004c0.028,0-0.152,0.004-0.152,0.004v0.524h-1.292V11.632H18.74V3.231
	H4.523v27.598c-0.646,0.364-0.646,0.765-1.292,1.189V30.371z M25.241,10.339l-5.209-5.89v5.89H25.241z M3.231,29.079V1.939h14.863
	h0.898h0.152l4.12,4.528V1.292H1.292v27.787H3.231z M28.268,36.16c0,1.261-1.935,1.556-2.571,1.695
	c-1.263,0.277-2.955,0.27-4.763,0.27c-0.001,0-0.001,0-0.001,0c-2.35,0-4.467-0.1-5.741-0.538c-1.275,0.438-3.392,0.807-5.741,0.807
	c-2.205,0-7.334-0.195-7.334-2.229c0-1.868,1.771-4.29,4.506-5.385c-0.904-0.985-1.484-2.363-1.484-3.658
	c0-2.384,1.938-4.32,4.32-4.32c2.381,0,4.318,1.941,4.318,4.324c0,1.296-0.58,2.681-1.484,3.667c1.093,0.443,2.099,1.131,2.9,1.985
	c0.801-0.854,1.807-1.541,2.899-1.984c-0.905-0.985-1.487-2.37-1.487-3.667c0-2.384,1.937-4.323,4.319-4.323
	c2.381,0,4.318,1.939,4.318,4.323c0,1.295-0.579,2.678-1.481,3.664C26.496,31.887,28.268,34.292,28.268,36.16z M27.09,35.961
	c-0.002-1.597-1.986-3.735-4.641-4.406c-0.225-0.057-0.396-0.216-0.436-0.445c-0.04-0.229,0.057-0.448,0.25-0.578
	c1.042-0.708,1.798-2.138,1.798-3.41c0-1.733-1.408-3.14-3.138-3.14c-1.73,0-3.139,1.411-3.139,3.144
	c0,1.273,0.758,2.709,1.803,3.416c0.193,0.13,0.291,0.362,0.251,0.591c-0.04,0.229-0.211,0.414-0.437,0.471
	c-1.461,0.369-2.825,1.26-3.742,2.445c-0.224,0.289-0.71,0.289-0.934,0c-0.917-1.184-2.281-2.075-3.742-2.444
	c-0.225-0.057-0.396-0.241-0.436-0.47c-0.04-0.229,0.057-0.46,0.25-0.59c1.042-0.708,1.799-2.144,1.799-3.416
	c0-1.733-1.408-3.143-3.138-3.143c-1.731,0-3.139,1.41-3.139,3.142c0,1.272,0.758,2.708,1.803,3.415
	c0.192,0.13,0.29,0.36,0.251,0.59c-0.04,0.229-0.211,0.411-0.437,0.468c-2.655,0.671-4.638,2.972-4.638,4.583
	c0.137,0.353,2.145,1.066,6.154,1.066c2.312,0,4.43-0.281,5.526-0.709c0.069-0.027,0.142-0.07,0.215-0.07
	c0.073,0,0.146-0.143,0.215-0.116c1.096,0.428,3.214,0.479,5.526,0.479c0,0,0.001,0,0.001,0
	C24.943,36.833,26.95,36.329,27.09,35.961z M22.676,18.74c0-0.308-0.251-0.646-0.56-0.646H8.132c-0.308,0-0.56,0.338-0.56,0.646
	c0,0.309,0.252,0.646,0.56,0.646h13.984C22.425,19.386,22.676,19.049,22.676,18.74z M22.116,13.57H8.132
	c-0.308,0-0.56,0.337-0.56,0.646c0,0.308,0.252,0.646,0.56,0.646h13.984c0.309,0,0.56-0.338,0.56-0.646
	C22.676,13.907,22.425,13.57,22.116,13.57z M13.976,23.909h1.837c0.375,0,0.822-0.646,1.325-1.292h-4.488
	C13.154,23.263,13.601,23.909,13.976,23.909z"/>
</svg>
