<svg class="img-responsive-SVG" version="1.1"
	 xmlns="http://www.w3.org/2000/svg" xmlns:xlink="http://www.w3.org/1999/xlink" xmlns:a="http://ns.adobe.com/AdobeSVGViewerExtensions/3.0/"
	 x="0px" y="0px" width="35.213px" height="38.704px" viewBox="0 0 35.213 38.704" enable-background="new 0 0 35.213 38.704"
	 xml:space="preserve" preserveAspectRatio="xMinYMin">
	<path fill="#999999" d="M7.435,10.013c0-0.319,0.26-0.666,0.579-0.666h5.779c0.319,0,0.579,0.347,0.579,0.666
		c0,0.322-0.259,0.669-0.579,0.669H8.014C7.695,10.682,7.435,10.335,7.435,10.013z M35.213,30.458c0,4.554-3.692,8.246-8.246,8.246
		c-2.993,0-5.606-1.6-7.051-3.987H2.671v-3.338H0V0h24.703v7.623l3.338,3.431V22.29C32.086,22.817,35.213,26.269,35.213,30.458z
		 M20.029,4.597v6.085h5.661L20.029,4.597z M2.671,2.003h16.563l0.093,0.096l4.041,4.153V1.335H1.335v28.708h1.335V2.003z
		 M7.435,28.708c0-0.319,0.26-0.668,0.579-0.668h11.069c0.389-1.272,1.079-2.41,1.985-3.338H8.014c-0.319,0-0.579-0.347-0.579-0.666
		c0-0.322,0.26-0.669,0.579-0.669h14.448c0.08,0,0.155,0.019,0.225,0.052c1.179-0.718,2.549-1.148,4.019-1.195V12.017h-8.012V3.338
		H4.006v30.044h15.259c-0.346-0.91-0.543-1.893-0.543-2.924c0-0.368,0.032-0.727,0.079-1.082H8.014
		C7.695,29.376,7.435,29.027,7.435,28.708z M33.993,30.458c0-3.874-3.152-7.027-7.027-7.027s-7.027,3.152-7.027,7.027
		s3.152,7.027,7.027,7.027S33.993,34.332,33.993,30.458z M8.014,20.029h14.448c0.319,0,0.579-0.348,0.579-0.668
		c0-0.319-0.259-0.668-0.579-0.668H8.014c-0.319,0-0.579,0.349-0.579,0.668C7.435,19.681,7.695,20.029,8.014,20.029z M8.014,15.356
		h14.448c0.319,0,0.579-0.349,0.579-0.668c0-0.319-0.259-0.668-0.579-0.668H8.014c-0.319,0-0.579,0.348-0.579,0.668
		C7.435,15.007,7.695,15.356,8.014,15.356z"/>
	<polygon fill="#999999" points="28.946,32.282 27.714,27.373 26.764,27.373 25.519,32.273 24.507,27.373 23.383,27.373 
		24.888,33.596 25.976,33.596 27.244,28.835 28.485,33.596 29.568,33.596 31.074,27.373 29.949,27.373 	"/>
</svg>
