<svg class="img-responsive-SVG" version="1.1"
	 xmlns="http://www.w3.org/2000/svg" xmlns:xlink="http://www.w3.org/1999/xlink" xmlns:a="http://ns.adobe.com/AdobeSVGViewerExtensions/3.0/"
	 x="0px" y="0px" width="14.878px" height="16.023px" viewBox="0 0 14.878 16.023" enable-background="new 0 0 14.878 16.023"
	 xml:space="preserve" preserveAspectRatio="xMinYMin">
	<path fill="#4F4750" d="M14.538,2.629c-0.226-0.227-0.495-0.34-0.804-0.34h-1.145V1.431c0-0.393-0.14-0.73-0.42-1.011
		C11.889,0.14,11.552,0,11.159,0h-0.572c-0.393,0-0.73,0.14-1.01,0.42C9.296,0.7,9.156,1.037,9.156,1.431v0.858H5.722V1.431
		c0-0.393-0.14-0.73-0.42-1.011C5.022,0.14,4.685,0,4.292,0H3.719c-0.393,0-0.73,0.14-1.01,0.42c-0.28,0.28-0.42,0.617-0.42,1.011
		v0.858H1.145c-0.31,0-0.578,0.113-0.805,0.34C0.113,2.855,0,3.124,0,3.434v11.445c0,0.31,0.113,0.578,0.34,0.804
		c0.227,0.227,0.495,0.34,0.805,0.34h12.589c0.31,0,0.579-0.113,0.805-0.34c0.227-0.227,0.34-0.495,0.34-0.804V3.434
		C14.878,3.124,14.765,2.855,14.538,2.629L14.538,2.629z M10.3,1.431c0-0.084,0.027-0.152,0.08-0.206
		c0.053-0.054,0.122-0.08,0.206-0.08h0.572c0.084,0,0.152,0.027,0.206,0.08c0.054,0.054,0.08,0.122,0.08,0.206v2.575
		c0,0.084-0.027,0.152-0.08,0.206c-0.054,0.054-0.122,0.08-0.206,0.08h-0.572c-0.084,0-0.152-0.027-0.206-0.08
		c-0.054-0.054-0.08-0.122-0.08-0.206V1.431z M3.434,1.431c0-0.084,0.027-0.152,0.08-0.206c0.054-0.054,0.122-0.08,0.205-0.08h0.572
		c0.084,0,0.152,0.027,0.206,0.08c0.054,0.054,0.08,0.122,0.08,0.206v2.575c0,0.084-0.027,0.152-0.08,0.206
		c-0.053,0.054-0.122,0.08-0.206,0.08H3.719c-0.083,0-0.152-0.027-0.205-0.08c-0.054-0.054-0.08-0.122-0.08-0.206V1.431z
		 M13.733,14.878H1.145V5.722h12.589V14.878z M13.733,14.878"/>
</svg>
