<svg class="img-responsive-SVG PerformanceGraphIcon" version="1.1" 
	 xmlns="http://www.w3.org/2000/svg" xmlns:xlink="http://www.w3.org/1999/xlink" xmlns:a="http://ns.adobe.com/AdobeSVGViewerExtensions/3.0/"
	 x="0px" y="0px" width="39.5px" height="39.5px" viewBox="0 0 39.5 39.5" enable-background="new 0 0 39.5 39.5"
	 xml:space="preserve" preserveAspectRatio="xMinYMin">
<circle fill="#FFFFFF" cx="19.75" cy="19.75" r="18.489"/>
<path fill="#CCCCCC" class="fillCCC" d="M19.75,35.718c-9.929,0-18.028-7.828-18.468-17.649c-0.013,0.279-0.021,0.559-0.021,0.84
	c0,10.211,8.278,18.489,18.489,18.489c10.211,0,18.489-8.278,18.489-18.489c0-0.282-0.009-0.562-0.021-0.84
	C37.778,27.89,29.679,35.718,19.75,35.718z"/>
<g>
	<path fill="#F4C495" d="M19.65,9.551c-5.852,0-10.532,4.68-10.532,10.532c0,5.852,4.68,10.532,10.532,10.532
		c0.938,0,1.754-0.816,1.754-1.754c0-0.468-0.114-0.816-0.468-1.172c-0.228-0.348-0.462-0.696-0.462-1.165
		c0-0.938,0.816-1.761,1.754-1.761h2.102c3.282,0,5.852-2.571,5.852-5.852C30.182,13.763,25.502,9.551,19.65,9.551L19.65,9.551z
		 M13.216,20.708c-1.272,0-2.379-1.107-2.379-2.379c0-1.272,1.107-2.379,2.379-2.379c1.27,0,2.379,1.107,2.379,2.379
		C15.595,19.601,14.486,20.708,13.216,20.708L13.216,20.708z M16.724,16.028c-1.27,0-2.379-1.109-2.379-2.379
		c0-1.272,1.109-2.379,2.379-2.379c1.272,0,2.379,1.107,2.379,2.379C19.103,14.919,17.996,16.028,16.724,16.028L16.724,16.028z
		 M22.576,15.986c-1.248,0-2.338-1.09-2.338-2.338c0-1.25,1.09-2.337,2.338-2.337c1.25,0,2.337,1.088,2.337,2.337
		C24.914,14.897,23.826,15.986,22.576,15.986L22.576,15.986z M26.093,20.665c-1.249,0-2.346-1.087-2.346-2.336
		s1.097-2.336,2.346-2.336c1.239,0,2.336,1.087,2.336,2.336S27.332,20.665,26.093,20.665L26.093,20.665z M26.092,20.083"/>
</g>
<path fill="#F4C495" d="M19.75,39.5C8.86,39.5,0,30.64,0,19.75S8.86,0,19.75,0S39.5,8.86,39.5,19.75S30.64,39.5,19.75,39.5z
	 M19.75,2.521c-9.5,0-17.229,7.729-17.229,17.229S10.25,36.979,19.75,36.979S36.979,29.25,36.979,19.75S29.25,2.521,19.75,2.521z"/>
</svg>
