<svg class="img-responsive-SVG PerformanceGraphIcon" version="1.1" 
	 xmlns="http://www.w3.org/2000/svg" xmlns:xlink="http://www.w3.org/1999/xlink" xmlns:a="http://ns.adobe.com/AdobeSVGViewerExtensions/3.0/"
	 x="0px" y="0px" width="39.5px" height="39.5px" viewBox="0 0 39.5 39.5" enable-background="new 0 0 39.5 39.5"
	 xml:space="preserve" preserveAspectRatio="xMinYMin">
<circle fill="#FFFFFF" cx="19.75" cy="19.75" r="18.489"/>
<path fill="#CCCCCC" class="fillCCC" d="M19.75,35.718c-9.929,0-18.028-7.828-18.468-17.649c-0.013,0.279-0.021,0.559-0.021,0.84
	c0,10.211,8.278,18.489,18.489,18.489c10.211,0,18.489-8.278,18.489-18.489c0-0.282-0.009-0.562-0.021-0.84
	C37.778,27.89,29.679,35.718,19.75,35.718z"/>
<path fill="#53AA0F" d="M31.194,13.997c-0.419-0.093-0.867,0.194-0.954,0.585c-0.024,0.093-0.112,0.395-0.322,0.803l-5.655-5.652
	c0.466-0.237,0.79-0.313,0.797-0.315c1.032-0.242,0.665-1.802-0.369-1.558c-0.065,0.015-6.333,1.653-5.302,10.601
	c-0.412-0.028-0.824-0.041-1.226-0.041c-7.309,0-10.105,4.594-10.221,4.788c-0.546,0.922,0.838,1.697,1.375,0.821
	c0.041-0.071,0.26-0.415,0.702-0.881l6.486,6.487c-0.462,0.438-0.808,0.66-0.874,0.699c-0.909,0.542-0.097,1.908,0.814,1.379
	c0.218-0.131,5.3-3.251,4.747-11.449c6.556,0.76,9.94-2.567,10.603-5.31C31.896,14.52,31.619,14.088,31.194,13.997L31.194,13.997z
	 M19.477,23.62l-3.441-3.443c1.097-0.166,2.322-0.197,3.538-0.097C19.678,21.317,19.645,22.505,19.477,23.62L19.477,23.62z
	 M14.124,20.603l4.905,4.932c-0.492,1.453-1.088,2.429-1.507,2.919l-6.316-6.338C12.299,21.231,13.712,20.787,14.124,20.603
	L14.124,20.603z M20.919,15.361l3.357,3.368c-0.987,0.095-2.096,0.062-3.255-0.093C20.861,17.455,20.827,16.355,20.919,15.361
	L20.919,15.361z M26.21,18.345l-4.926-4.887c0.36-1.159,0.874-1.964,1.562-2.688l6.063,5.973l-0.065,0.08
	C27.878,17.756,26.622,18.274,26.21,18.345L26.21,18.345z M26.21,18.345"/>
<path fill="#53AA0F" d="M19.75,39.5C8.86,39.5,0,30.64,0,19.75S8.86,0,19.75,0S39.5,8.86,39.5,19.75S30.64,39.5,19.75,39.5z
	 M19.75,2.521c-9.5,0-17.229,7.729-17.229,17.229S10.25,36.979,19.75,36.979S36.979,29.25,36.979,19.75S29.25,2.521,19.75,2.521z"/>
</svg>
