<svg class="img-responsive-SVG PerformanceGraphIcon" version="1.1" 
	 xmlns="http://www.w3.org/2000/svg" xmlns:xlink="http://www.w3.org/1999/xlink" xmlns:a="http://ns.adobe.com/AdobeSVGViewerExtensions/3.0/"
	 x="0px" y="0px" width="39.5px" height="39.5px" viewBox="0 0 39.5 39.5" enable-background="new 0 0 39.5 39.5"
	 xml:space="preserve" preserveAspectRatio="xMinYMin">
<circle fill="#FFFFFF" cx="19.75" cy="19.75" r="18.489"/>
<path fill="#CCCCCC" class="fillCCC" d="M19.75,35.718c-9.929,0-18.028-7.828-18.468-17.649c-0.013,0.279-0.021,0.559-0.021,0.84
	c0,10.211,8.278,18.489,18.489,18.489c10.211,0,18.489-8.278,18.489-18.489c0-0.282-0.009-0.562-0.021-0.84
	C37.778,27.89,29.679,35.718,19.75,35.718z"/>
<path fill="#EFCE4A" d="M30.687,18.735c-0.114-1.244-0.439-2.442-0.964-3.558c0,0,0,0-0.002-0.002
	c-0.52-1.11-1.229-2.12-2.105-2.994c-0.177-0.183-0.348-0.342-0.512-0.479c-0.499-0.442-1.046-0.842-1.628-1.187
	c-0.002-0.002-0.002-0.002-0.002-0.002c-0.328-0.194-0.646-0.36-0.97-0.507c-0.939-0.434-1.937-0.724-2.967-0.866
	c-0.238-0.033-0.474-0.057-0.715-0.075c-0.201-0.015-0.414,0.03-0.593,0.027c-0.68-0.014-1.363-0.139-2.031,0.204h-0.005
	c-1.358,0-2.638,0.593-3.799,1.319c-0.561,0.345-1.1,0.739-1.599,1.082h-0.002v0.08c0,0-0.003,0.042-0.003,0.044l-0.002,0.02
	c-0.107,0.097-0.216,0.207-0.32,0.311c-0.048,0.049-0.099,0.105-0.144,0.161c-0.807,0.836-1.517,1.783-2.004,2.813
	c-0.481,1-0.66,2.063-1.003,3.16v0.002c0,0.601-0.057,1.22-0.035,1.854l0.048,0.365c0.072,1.067,0.315,2.096,0.69,3.064l0.007,0.002
	c0.002,0.003,0.005,0.005,0.007,0.007c0,0.001,0.002,0.003,0.003,0.005c0,0.002,0.002,0.002,0.002,0.002
	c0.084,0.233,0.186,0.471,0.308,0.728c0.427,0.899,0.978,1.735,1.648,2.495c0.024,0.027,0.047,0.054,0.072,0.078
	c0.115,0.139,0.248,0.282,0.388,0.422c0.67,0.67,1.425,1.249,2.254,1.724c0.039,0.022,0.077,0.044,0.114,0.062
	c0.001,0.002,0.003,0.003,0.003,0.003c1.341,0.75,2.869,1.204,4.414,1.313c0.251,0.018,0.508,0.028,0.762,0.028
	c0.129,0,0.256-0.003,0.383-0.006l0.005-0.002c1.196-0.037,2.364-0.27,3.473-0.695c0.171-0.064,0.34-0.134,0.509-0.21
	c0.017-0.006,0.033-0.015,0.048-0.025c1.038-0.462,1.993-1.09,2.836-1.867c0.014-0.012,0.029-0.025,0.042-0.038
	c0.094-0.079,0.186-0.168,0.266-0.249l-0.03-0.03c1.325-1.321,2.358-2.965,2.701-4.756v-0.001v0.108h0.089
	c0.1-0.343,0.192-0.784,0.249-1.137c0-0.005,0.008-0.039,0.01-0.045c0.135-0.814,0.177-1.668,0.117-2.497
	C30.699,18.913,30.696,18.815,30.687,18.735L30.687,18.735z M26.886,12.905c0.728,0.728,1.321,1.561,1.779,2.467l-2.011,3.233
	l-2.858,0.278l-2.696-2.902l0.362-2.579l3.973-1.616c0.018-0.009,0.034-0.024,0.052-0.032c0.328,0.224,0.646,0.462,0.946,0.728
	C26.581,12.607,26.729,12.744,26.886,12.905L26.886,12.905z M14.643,23.883l-3.731-0.918c-0.286-0.802-0.467-1.649-0.527-2.522
	l-0.02-0.348c-0.017-0.466,0.007-0.926,0.054-1.38l3.384-1.378l2.199,1.053l0.467,3.869L14.643,23.883z M14.937,11.517
	c0.97-0.608,2.03-1.027,3.15-1.256l2.381,2.817L20.086,15.8l-3.615,1.674l-2.217-1.061l-0.305-4.139c0-0.017-0.008-0.03-0.01-0.045
	C14.259,11.969,14.592,11.728,14.937,11.517L14.937,11.517z M15.572,28.328l-0.27-3.656l1.828-1.626l3.932,0.777l0.839,2.205
	l-2.098,3.381c-0.162-0.003-0.325-0.01-0.487-0.024C17.99,29.293,16.732,28.934,15.572,28.328L15.572,28.328z M26.986,26.464
	l-4.213-1.035L22,23.395l1.949-3.493l2.868-0.279l2.468,2.923C28.848,24.01,28.058,25.356,26.986,26.464L26.986,26.464z
	 M26.986,26.464"/>
<path fill="#EFCE4A" d="M19.75,39.5C8.86,39.5,0,30.64,0,19.75S8.86,0,19.75,0S39.5,8.86,39.5,19.75S30.64,39.5,19.75,39.5z
	 M19.75,2.521c-9.5,0-17.229,7.729-17.229,17.229S10.25,36.979,19.75,36.979S36.979,29.25,36.979,19.75S29.25,2.521,19.75,2.521z"/>
</svg>
