<svg class="img-responsive-SVG PerformanceGraphIcon" version="1.1" 
	 xmlns="http://www.w3.org/2000/svg" xmlns:xlink="http://www.w3.org/1999/xlink" xmlns:a="http://ns.adobe.com/AdobeSVGViewerExtensions/3.0/"
	 x="0px" y="0px" width="39.5px" height="39.5px" viewBox="0 0 39.5 39.5" enable-background="new 0 0 39.5 39.5"
	 xml:space="preserve" preserveAspectRatio="xMinYMin">
<circle fill="#FFFFFF" cx="19.75" cy="19.75" r="18.489"/>
<path fill="#CCCCCC" class="fillCCC" d="M19.75,35.718c-9.929,0-18.028-7.828-18.468-17.649c-0.013,0.279-0.021,0.559-0.021,0.84
	c0,10.211,8.278,18.489,18.489,18.489c10.211,0,18.489-8.278,18.489-18.489c0-0.282-0.009-0.562-0.021-0.84
	C37.778,27.89,29.679,35.718,19.75,35.718z"/>
<path fill="#60A59F" d="M19.75,39.5C8.86,39.5,0,30.64,0,19.75S8.86,0,19.75,0S39.5,8.86,39.5,19.75S30.64,39.5,19.75,39.5z
	 M19.75,2.521c-9.5,0-17.229,7.729-17.229,17.229S10.25,36.979,19.75,36.979S36.979,29.25,36.979,19.75S29.25,2.521,19.75,2.521z"/>
<g>
	<path fill="#60A59F" d="M15.565,22.417c-1.439,1.289-2.261,3.129-2.261,5.061v0.945c0,0.394,0.32,0.713,0.713,0.713h11.465
		c0.394,0,0.713-0.319,0.713-0.713v-0.945c0-1.931-0.822-3.772-2.26-5.061l-0.945-0.847c-0.637-0.571-1.003-1.386-1.005-2.242
		c-0.003-0.856,0.359-1.673,0.992-2.248l0.987-0.894c1.421-1.288,2.232-3.117,2.232-5.035v-0.909c0-0.394-0.319-0.713-0.713-0.713
		H14.017c-0.393,0-0.713,0.319-0.713,0.713v0.909c0,1.918,0.811,3.746,2.232,5.035l0.987,0.894c0.635,0.575,0.995,1.391,0.992,2.248
		c-0.003,0.856-0.368,1.671-1.005,2.242L15.565,22.417z M17.181,15.799c-1.221-0.692-1.976-1.986-1.976-3.39V11.64
		c0-0.279,0.226-0.505,0.505-0.505h8.079c0.279,0,0.505,0.226,0.505,0.505v0.769c0,1.403-0.754,2.698-1.976,3.39l-2.136,1.21
		c-0.268,0.152-0.597,0.152-0.866,0L17.181,15.799z M17.181,15.799"/>
</g>
</svg>
