	<svg class="img-responsive-SVG PerformanceGraphIcon"  version="1.1" xmlns="http://www.w3.org/2000/svg"
		xmlns:xlink="http://www.w3.org/1999/xlink" xmlns:a="http://ns.adobe.com/AdobeSVGViewerExtensions/3.0/"
		x="0px" y="0px" width="40px" height="40px" viewBox="0 0 40 40" enable-background="new 0 0 40 40"
		xml:space="preserve" preserveAspectRatio="xMinYMin">
		<circle fill="#FFFFFF" cx="19.75" cy="19.75" r="18.489" />
		<path fill="#CCCCCC" class="fillCCC" d="M19.75,35.718c-9.929,0-18.028-7.828-18.468-17.649c-0.013,0.279-0.021,0.559-0.021,0.84
			c0,10.211,8.278,18.489,18.489,18.489c10.211,0,18.489-8.278,18.489-18.489c0-0.282-0.009-0.562-0.021-0.84
			C37.778,27.89,29.679,35.718,19.75,35.718z" />
		<path fill="#E23939" d="M19.987,13.212c-4.752,0-8.604,3.024-8.604,6.754c0,1.771,0.863,3.379,2.279,4.584
			c-0.054,1.175-0.299,2.754-1.158,3.563c1.645,0,3.325-1.08,4.32-1.86c0.978,0.306,2.046,0.475,3.162,0.475
			c4.744,0,8.595-3.03,8.595-6.762C28.583,16.236,24.731,13.212,19.987,13.212z M15.688,21.516c-0.703,0-1.273-0.57-1.273-1.273
			s0.57-1.273,1.273-1.273s1.273,0.57,1.273,1.273S16.391,21.516,15.688,21.516z M20.026,21.516c-0.703,0-1.273-0.57-1.273-1.273
			s0.57-1.273,1.273-1.273s1.273,0.57,1.273,1.273S20.729,21.516,20.026,21.516z M24.365,21.516c-0.703,0-1.273-0.57-1.273-1.273
			s0.57-1.273,1.273-1.273c0.703,0,1.273,0.57,1.273,1.273S25.068,21.516,24.365,21.516z" />
		<path fill="#E23939" d="M19.75,39.5C8.86,39.5,0,30.64,0,19.75S8.86,0,19.75,0S39.5,8.86,39.5,19.75S30.64,39.5,19.75,39.5z
			M19.75,2.521c-9.5,0-17.229,7.729-17.229,17.229S10.25,36.979,19.75,36.979S36.979,29.25,36.979,19.75S29.25,2.521,19.75,2.521z"
		/>
	</svg>