<svg class="img-responsive-SVG PerformanceGraphIcon" version="1.1" 
	 xmlns="http://www.w3.org/2000/svg" xmlns:xlink="http://www.w3.org/1999/xlink" xmlns:a="http://ns.adobe.com/AdobeSVGViewerExtensions/3.0/"
	 x="0px" y="0px" width="39.5px" height="39.5px" viewBox="0 0 39.5 39.5" enable-background="new 0 0 39.5 39.5"
	 xml:space="preserve" preserveAspectRatio="xMinYMin">
<defs>
</defs>
<circle fill="#FFFFFF" cx="19.75" cy="19.909" r="18.489"/>
<path fill="#CCCCCC" class="fillCCC" d="M19.75,35.718c-9.929,0-18.028-7.828-18.468-17.649c-0.013,0.279-0.021,0.559-0.021,0.84
	c0,10.211,8.278,18.489,18.489,18.489c10.211,0,18.489-8.278,18.489-18.489c0-0.282-0.009-0.562-0.021-0.84
	C37.778,27.89,29.679,35.718,19.75,35.718z"/>
<g>
	<g>
		<path fill="#ED7A8D" d="M14.486,13.476h1.358l5.183,12.688h-1.716l-1.502-3.717h-5.324l-1.483,3.717H9.286L14.486,13.476z
			 M17.453,21.196l-2.288-5.862l-2.358,5.862H17.453z"/>
		<path fill="#ED7A8D" d="M21.771,26.664h-2.797l-1.501-3.717h-4.649l-1.483,3.717h-2.8l5.61-13.688h2.029L21.771,26.664z
			 M19.648,25.664h0.635l-4.774-11.688h-0.688l-4.79,11.688h0.632l1.483-3.717h6.001L19.648,25.664z M18.185,21.696h-6.118
			l3.105-7.718L18.185,21.696z M13.547,20.696h3.175l-1.563-4.004L13.547,20.696z"/>
	</g>
	<g>
		<path fill="#ED7A8D" d="M24.726,26.343c-0.44,0-0.851-0.075-1.233-0.224c-0.381-0.149-0.712-0.354-0.992-0.616
			c-0.28-0.262-0.501-0.569-0.662-0.92c-0.16-0.351-0.241-0.736-0.241-1.153c0-0.429,0.095-0.819,0.286-1.17
			c0.19-0.351,0.461-0.652,0.813-0.902c0.351-0.25,0.768-0.447,1.251-0.59c0.482-0.143,1.01-0.215,1.581-0.215
			c0.453,0,0.912,0.042,1.376,0.125c0.465,0.083,0.876,0.196,1.234,0.34v-0.75c0-0.762-0.214-1.361-0.644-1.796
			c-0.428-0.435-1.036-0.652-1.823-0.652c-0.941,0-1.929,0.363-2.966,1.09l-0.518-1.019c1.203-0.81,2.412-1.215,3.628-1.215
			c1.227,0,2.183,0.328,2.868,0.983c0.685,0.656,1.028,1.579,1.028,2.77v3.807c0,0.369,0.167,0.56,0.501,0.572v1.358
			c-0.167,0.024-0.304,0.042-0.412,0.054c-0.106,0.012-0.221,0.018-0.34,0.018c-0.309,0-0.557-0.092-0.741-0.277
			c-0.186-0.184-0.295-0.408-0.331-0.67l-0.036-0.661c-0.417,0.56-0.944,0.986-1.582,1.278
			C26.135,26.197,25.452,26.343,24.726,26.343z M25.138,25.163c0.559,0,1.081-0.104,1.564-0.313
			c0.482-0.208,0.849-0.485,1.099-0.831c0.225-0.226,0.34-0.459,0.34-0.697v-1.376c-0.763-0.298-1.555-0.447-2.377-0.447
			c-0.787,0-1.428,0.167-1.921,0.501c-0.495,0.334-0.743,0.768-0.743,1.305c0,0.262,0.051,0.507,0.152,0.733
			c0.102,0.226,0.244,0.423,0.429,0.59c0.185,0.167,0.402,0.298,0.652,0.393C24.583,25.116,24.851,25.163,25.138,25.163z"/>
		<path fill="#ED7A8D" d="M24.726,26.843c-0.5,0-0.976-0.087-1.414-0.258c-0.442-0.173-0.83-0.415-1.152-0.719
			c-0.325-0.303-0.586-0.666-0.773-1.075c-0.19-0.418-0.287-0.876-0.287-1.362c0-0.51,0.116-0.983,0.347-1.408
			c0.227-0.418,0.551-0.779,0.963-1.072c0.393-0.28,0.864-0.503,1.399-0.662c0.938-0.277,2.061-0.303,3.187-0.102
			c0.227,0.041,0.441,0.088,0.646,0.143v-0.061c0-0.632-0.163-1.105-0.499-1.445c-0.335-0.339-0.814-0.504-1.468-0.504
			c-0.831,0-1.732,0.336-2.679,1l-0.472,0.331l-0.98-1.926l0.367-0.247c1.282-0.863,2.597-1.301,3.907-1.301
			c1.355,0,2.437,0.377,3.214,1.122c0.784,0.75,1.182,1.803,1.182,3.131v3.807c0,0.078,0.013,0.106,0.013,0.106l0.482,0.018
			l0.006,2.24l-0.429,0.062c-0.175,0.025-0.316,0.043-0.43,0.056c-0.121,0.014-0.254,0.021-0.393,0.021
			c-0.445,0-0.813-0.143-1.095-0.423c-0.17-0.168-0.296-0.363-0.378-0.581c-0.305,0.25-0.642,0.459-1.009,0.628
			C26.279,26.681,25.521,26.843,24.726,26.843z M24.655,21.12c-0.196,0.031-0.385,0.074-0.564,0.127
			c-0.429,0.127-0.799,0.301-1.102,0.517c-0.293,0.208-0.51,0.447-0.665,0.734c-0.151,0.281-0.226,0.585-0.226,0.932
			c0,0.342,0.066,0.66,0.196,0.946c0.133,0.29,0.317,0.546,0.548,0.762c0.231,0.217,0.511,0.39,0.832,0.516
			c0.882,0.344,1.991,0.208,2.89-0.203c0.034-0.016,0.068-0.032,0.102-0.048c-0.786,0.285-1.73,0.384-2.511,0.085
			c-0.306-0.117-0.578-0.281-0.81-0.489c-0.235-0.213-0.42-0.467-0.55-0.756c-0.13-0.29-0.196-0.605-0.196-0.938
			c0-0.7,0.333-1.294,0.963-1.719C23.878,21.373,24.243,21.217,24.655,21.12z M28.78,23.218l0.108,2.044
			c0.018,0.114,0.077,0.236,0.185,0.342c0.057,0.057,0.158,0.131,0.389,0.131c0.088,0,0.172-0.004,0.251-0.012v-0.54
			c-0.317-0.169-0.501-0.503-0.501-0.95v-3.807c0-1.06-0.285-1.847-0.873-2.409c-0.594-0.568-1.419-0.844-2.522-0.844
			c-0.985,0-1.984,0.3-2.977,0.894l0.061,0.117c1.933-1.171,3.919-1.111,4.951-0.066c0.523,0.529,0.788,1.251,0.788,2.147v3.056
			c0,0.03-0.001,0.059-0.003,0.088L28.78,23.218z M25.764,22c-0.682,0-1.234,0.14-1.642,0.415c-0.356,0.24-0.522,0.523-0.522,0.89
			c0,0.193,0.035,0.366,0.108,0.528c0.074,0.165,0.175,0.304,0.309,0.424c0.14,0.125,0.302,0.223,0.494,0.296
			c0.612,0.233,1.383,0.102,1.992-0.162c0.396-0.171,0.697-0.396,0.894-0.666c0.179-0.188,0.243-0.303,0.243-0.403v-1.024
			C27.034,22.1,26.404,22,25.764,22z"/>
	</g>
</g>
<path fill="#ED7A8D" d="M19.75,39.5C8.86,39.5,0,30.64,0,19.75S8.86,0,19.75,0S39.5,8.86,39.5,19.75S30.64,39.5,19.75,39.5z
	 M19.75,2.521c-9.5,0-17.229,7.729-17.229,17.229S10.25,36.979,19.75,36.979S36.979,29.25,36.979,19.75S29.25,2.521,19.75,2.521z"/>
</svg>
