<svg class="img-responsive-SVG PerformanceGraphIcon" version="1.1" 
	 xmlns="http://www.w3.org/2000/svg" xmlns:xlink="http://www.w3.org/1999/xlink" xmlns:a="http://ns.adobe.com/AdobeSVGViewerExtensions/3.0/"
	 x="0px" y="0px" width="39.5px" height="39.5px" viewBox="0 0 39.5 39.5" enable-background="new 0 0 39.5 39.5"
	 xml:space="preserve" preserveAspectRatio="xMinYMin">
<circle fill="#FFFFFF" cx="19.75" cy="19.75" r="18.489"/>
<path fill="#CCCCCC" class="fillCCC" d="M19.75,35.718c-9.929,0-18.028-7.828-18.468-17.649c-0.013,0.279-0.021,0.559-0.021,0.84
	c0,10.211,8.278,18.489,18.489,18.489c10.211,0,18.489-8.278,18.489-18.489c0-0.282-0.009-0.562-0.021-0.84
	C37.778,27.89,29.679,35.718,19.75,35.718z"/>
<path fill="#2E3192" d="M19.75,39.5C8.86,39.5,0,30.64,0,19.75S8.86,0,19.75,0S39.5,8.86,39.5,19.75S30.64,39.5,19.75,39.5z
	 M19.75,2.521c-9.5,0-17.229,7.729-17.229,17.229S10.25,36.979,19.75,36.979S36.979,29.25,36.979,19.75S29.25,2.521,19.75,2.521z"/>
<g>
	<path fill="#2E3192" d="M18.212,16.266c0,0.56-0.104,1.082-0.313,1.567c-0.209,0.485-0.497,0.911-0.864,1.278
		s-0.795,0.655-1.284,0.864c-0.489,0.209-1.009,0.314-1.561,0.314c-0.552,0-1.07-0.105-1.555-0.314
		c-0.485-0.209-0.91-0.497-1.272-0.864c-0.363-0.367-0.648-0.793-0.857-1.278c-0.209-0.485-0.314-1.007-0.314-1.567
		c0-0.552,0.105-1.071,0.314-1.556c0.209-0.485,0.494-0.908,0.857-1.271c0.363-0.363,0.787-0.649,1.272-0.858
		c0.485-0.209,1.003-0.313,1.555-0.313c0.552,0,1.073,0.104,1.561,0.313c0.489,0.209,0.917,0.496,1.284,0.858
		c0.367,0.363,0.655,0.786,0.864,1.271C18.108,15.195,18.212,15.714,18.212,16.266z M15.74,16.266c0-0.213-0.039-0.413-0.118-0.598
		c-0.079-0.185-0.187-0.347-0.325-0.485c-0.138-0.138-0.302-0.246-0.492-0.325s-0.394-0.118-0.615-0.118
		c-0.213,0-0.411,0.039-0.597,0.118s-0.347,0.187-0.485,0.325c-0.138,0.138-0.247,0.3-0.326,0.485
		c-0.079,0.185-0.118,0.385-0.118,0.598c0,0.213,0.039,0.414,0.118,0.603c0.079,0.189,0.188,0.355,0.326,0.497
		c0.138,0.142,0.3,0.252,0.485,0.331c0.185,0.079,0.384,0.118,0.597,0.118c0.221,0,0.426-0.039,0.615-0.118
		c0.189-0.079,0.354-0.189,0.492-0.331c0.138-0.142,0.246-0.308,0.325-0.497C15.7,16.68,15.74,16.479,15.74,16.266z M25.428,12.114
		L16.71,27.386h-2.839l8.73-15.272H25.428z M29.308,23.21c0,0.552-0.104,1.07-0.313,1.555c-0.209,0.485-0.496,0.91-0.858,1.272
		c-0.363,0.363-0.786,0.648-1.271,0.857c-0.485,0.209-1.004,0.314-1.556,0.314c-0.56,0-1.082-0.105-1.567-0.314
		s-0.911-0.494-1.278-0.857c-0.367-0.363-0.655-0.787-0.864-1.272c-0.209-0.485-0.314-1.003-0.314-1.555s0.105-1.071,0.314-1.556
		c0.209-0.485,0.497-0.911,0.864-1.278s0.793-0.656,1.278-0.869c0.485-0.213,1.007-0.319,1.567-0.319
		c0.552,0,1.071,0.106,1.556,0.319c0.485,0.213,0.908,0.502,1.271,0.869c0.363,0.367,0.649,0.793,0.858,1.278
		C29.204,22.139,29.308,22.658,29.308,23.21z M26.836,23.21c0-0.213-0.039-0.413-0.118-0.598c-0.079-0.185-0.187-0.348-0.325-0.49
		s-0.3-0.255-0.485-0.338c-0.185-0.083-0.385-0.124-0.598-0.124c-0.213,0-0.414,0.041-0.603,0.124
		c-0.189,0.083-0.352,0.196-0.49,0.338c-0.138,0.142-0.248,0.305-0.331,0.49c-0.083,0.185-0.125,0.385-0.125,0.598
		s0.042,0.411,0.125,0.597c0.083,0.185,0.193,0.347,0.331,0.485c0.138,0.138,0.301,0.247,0.49,0.326
		c0.189,0.079,0.39,0.118,0.603,0.118c0.213,0,0.413-0.039,0.598-0.118c0.185-0.079,0.347-0.188,0.485-0.326
		c0.138-0.138,0.246-0.3,0.325-0.485C26.796,23.621,26.836,23.423,26.836,23.21z"/>
</g>
</svg>
