<svg class="img-responsive-SVG PerformanceGraphIcon" version="1.1" 
	 xmlns="http://www.w3.org/2000/svg" xmlns:xlink="http://www.w3.org/1999/xlink" xmlns:a="http://ns.adobe.com/AdobeSVGViewerExtensions/3.0/"
	 x="0px" y="0px" width="39.5px" height="39.5px" viewBox="0 0 39.5 39.5" enable-background="new 0 0 39.5 39.5"
	 xml:space="preserve" preserveAspectRatio="xMinYMin">
<defs>
</defs>
<circle fill="#FFFFFF" cx="19.187" cy="19.75" r="18.489"/>
<path fill="#CCCCCC" class="fillCCC" d="M19.75,35.718c-9.929,0-18.028-7.828-18.468-17.649c-0.013,0.279-0.021,0.559-0.021,0.84
	c0,10.211,8.278,18.489,18.489,18.489c10.211,0,18.489-8.278,18.489-18.489c0-0.282-0.009-0.562-0.021-0.84
	C37.778,27.89,29.679,35.718,19.75,35.718z"/>
<g>
	<path fill="#00C9FF" d="M16.518,13.554v10.531h-2.225c-1.718,0-3.114,1.397-3.114,3.115c0,1.717,1.397,3.114,3.114,3.114
		c1.66,0,3.114-1.456,3.114-3.114v-9.934l8.899-3.64v6.901h-2.225c-1.718,0-3.114,1.397-3.114,3.114
		c0,1.718,1.397,3.114,3.114,3.114c1.66,0,3.115-1.456,3.115-3.114V9.185L16.518,13.554z M16.518,13.554"/>
</g>
<path fill="#00C9FF" d="M19.75,39.5C8.86,39.5,0,30.64,0,19.75S8.86,0,19.75,0S39.5,8.86,39.5,19.75S30.64,39.5,19.75,39.5z
	 M19.75,2.521c-9.5,0-17.229,7.729-17.229,17.229S10.25,36.979,19.75,36.979S36.979,29.25,36.979,19.75S29.25,2.521,19.75,2.521z"/>
</svg>
