<svg class="img-responsive-SVG PerformanceGraphIcon" version="1.1" 
	 xmlns="http://www.w3.org/2000/svg" xmlns:xlink="http://www.w3.org/1999/xlink" xmlns:a="http://ns.adobe.com/AdobeSVGViewerExtensions/3.0/"
	 x="0px" y="0px" width="39.5px" height="39.5px" viewBox="0 0 39.5 39.5" enable-background="new 0 0 39.5 39.5"
	 xml:space="preserve" preserveAspectRatio="xMinYMin">
<circle fill="#FFFFFF" cx="19.75" cy="19.75" r="18.489"/>
<path fill="#CCCCCC" class="fillCCC" d="M19.75,35.718c-9.929,0-18.028-7.828-18.468-17.649c-0.013,0.279-0.021,0.559-0.021,0.84
	c0,10.211,8.278,18.489,18.489,18.489c10.211,0,18.489-8.278,18.489-18.489c0-0.282-0.009-0.562-0.021-0.84
	C37.778,27.89,29.679,35.718,19.75,35.718z"/>
<path fill="#006837" d="M26.432,24.993l-4.56-8.539V12.12h0.451c0.2,0,0.362-0.162,0.362-0.362v-0.73c0-0.2-0.162-0.362-0.362-0.362
	h-5.499c-0.201,0-0.362,0.162-0.362,0.362v0.73c0,0.199,0.16,0.362,0.362,0.362h0.413v4.335l-4.196,8.5
	c-1.072,1.68-0.326,3.043,1.668,3.043h10.112C26.813,27.999,27.536,26.654,26.432,24.993L26.432,24.993z M18.531,17.094l0.15-0.302
	V12.12h1.747v4.697l0.169,0.317l1.954,3.659h-5.845L18.531,17.094z M18.531,17.094"/>
<path fill="#006837" d="M19.75,39.5C8.86,39.5,0,30.64,0,19.75S8.86,0,19.75,0S39.5,8.86,39.5,19.75S30.64,39.5,19.75,39.5z
	 M19.75,2.521c-9.5,0-17.229,7.729-17.229,17.229S10.25,36.979,19.75,36.979S36.979,29.25,36.979,19.75S29.25,2.521,19.75,2.521z"/>
</svg>
