<svg class="img-responsive-SVG" version="1.1" xmlns="http://www.w3.org/2000/svg" xmlns:xlink="http://www.w3.org/1999/xlink"
	xmlns:a="http://ns.adobe.com/AdobeSVGViewerExtensions/3.0/" x="0px" y="0px" width="26.918px" height="23.239px"
	viewBox="0 0 26.918 23.239" enable-background="new 0 0 26.918 23.239" xml:space="preserve" preserveAspectRatio="xMinYMin">
	<g>
		<path fill="#BABEBF" d="M21.278,23.085H1.806C0.811,23.085,0,22.275,0,21.278V3.971c0-0.996,0.811-1.806,1.806-1.806h19.472
			c0.996,0,1.806,0.811,1.806,1.806v17.308C23.085,22.275,22.275,23.085,21.278,23.085z M1.509,3.332
			c-0.207,0-0.375,0.168-0.375,0.375v17.836c0,0.207,0.168,0.375,0.375,0.375h20.066c0.207,0,0.375-0.168,0.375-0.375V3.706
			c0-0.207-0.168-0.375-0.375-0.375H1.509z" />
		<path fill="#BABEBF" d="M22.363,8.38H0.721C0.323,8.38,0,8.119,0,7.797c0-0.322,0.323-0.583,0.721-0.583h21.642
			c0.399,0,0.721,0.261,0.721,0.583C23.085,8.119,22.762,8.38,22.363,8.38z" />
		<path fill="#BABEBF" d="M18.621,5.771c-0.324,0-0.586-0.323-0.586-0.721V0.721C18.035,0.323,18.297,0,18.621,0
			c0.324,0,0.586,0.323,0.586,0.721V5.05C19.206,5.448,18.944,5.771,18.621,5.771z" />
		<path fill="#BABEBF" d="M4.532,5.771c-0.324,0-0.586-0.323-0.586-0.721V0.721C3.947,0.323,4.208,0,4.532,0s0.586,0.323,0.586,0.721
			V5.05C5.118,5.448,4.856,5.771,4.532,5.771z" />
	</g>
</svg>