<svg class="img-responsive-SVG" 
	 xmlns="http://www.w3.org/2000/svg" xmlns:xlink="http://www.w3.org/1999/xlink" xmlns:a="http://ns.adobe.com/AdobeSVGViewerExtensions/3.0/"
	 x="0px" y="0px" width="15.854px" height="23.033px" viewBox="0 0 15.854 23.033" enable-background="new 0 0 15.854 23.033"
	 xml:space="preserve" preserveAspectRatio="xMinYMin">
<path fill="#BABEBF" d="M14.449,1.21L1.778,0C0.605,0,0,0.768,0,1.589v16.227c0,0.681,0.416,1.286,1.059,1.513l9.607,3.593
	c0.954,0.382,1.937-0.266,2.119-1.173c0.783,0,1.364-0.581,1.513-1.324c0.781,0,1.55-0.687,1.55-1.626V2.837
	C15.924,2.005,15.281,1.286,14.449,1.21z M0.794,17.853V1.626c0-0.64,0.664-1.048,1.173-0.794l7.338,2.837
	c0.34,0.113,0.567,0.454,0.567,0.794V21.9l-8.51-3.177C1.021,18.534,0.794,18.231,0.794,17.853z M12.142,21.484
	c0,0.596-0.539,1.114-1.513,0.681v-7.83l1.248,1.248c0.151,0.151,0.265,0.378,0.265,0.605V21.484z M13.654,20.198
	c0,0.371-0.237,0.739-0.756,0.87v-4.841c0-0.417-0.151-0.832-0.492-1.135l-1.551-1.551c-0.151-0.151-0.265-0.378-0.265-0.605V4.463
	c0-0.681-0.417-1.286-1.021-1.513L5.295,1.286l7.678,1.702c0.416,0.076,0.681,0.454,0.681,0.832V20.198z M15.167,18.874
	c0,0.466-0.349,0.767-0.756,0.87V3.858c0-0.756-0.53-1.399-1.286-1.589L9.948,1.551l4.425,0.416c0.454,0.038,0.794,0.416,0.794,0.87
	V18.874z"/>
</svg>
