<svg class="img-responsive-SVG" version="1.1" xmlns="http://www.w3.org/2000/svg" xmlns:xlink="http://www.w3.org/1999/xlink"
    xmlns:a="http://ns.adobe.com/AdobeSVGViewerExtensions/3.0/" x="0px" y="0px" width="21.945px" height="21.945px"
    viewBox="0 0 21.945 21.945" enable-background="new 0 0 21.945 21.945" xml:space="preserve" preserveAspectRatio="xMinYMin">
        <path fill-rule="evenodd" clip-rule="evenodd" fill="#BABEBF" d="M8.275,6.497C8.186,6.589,8.133,6.648,8.089,6.696
            C8.167,6.609,8.275,6.497,8.275,6.497L8.275,6.497z M8.275,6.497" />
        <path fill-rule="evenodd" clip-rule="evenodd" fill="#BABEBF" d="M12.082,7.203c0.283,0.352,0.424,0.766,0.424,1.242
            c0,0.342-0.097,0.668-0.292,0.984c-0.107,0.181-0.243,0.357-0.419,0.521l-0.585,0.575c-0.565,0.556-0.925,1.042-1.091,1.466
            c-0.166,0.429-0.248,0.989-0.248,1.686h1.3c0-0.613,0.074-1.077,0.209-1.393c0.136-0.312,0.443-0.697,0.91-1.149
            c0.643-0.623,1.072-1.096,1.282-1.418c0.209-0.322,0.317-0.741,0.317-1.257c0-0.852-0.288-1.553-0.868-2.098
            c-0.575-0.551-1.344-0.824-2.303-0.824c-1.037,0-1.851,0.322-2.445,0.96C7.68,7.14,7.383,7.982,7.383,9.034h1.3
            C8.702,8.401,8.805,7.919,8.98,7.583c0.312-0.603,0.872-0.906,1.691-0.906C11.328,6.676,11.795,6.852,12.082,7.203L12.082,7.203z
            M12.082,7.203" />
        <path fill-rule="evenodd" clip-rule="evenodd" fill="#BABEBF" d="M21.945,10.973C21.945,4.913,17.031,0,10.973,0
            C4.913,0,0,4.913,0,10.973c0,6.058,4.913,10.973,10.973,10.973C17.031,21.945,21.945,17.031,21.945,10.973L21.945,10.973z
            M0.999,10.973c0-5.508,4.466-9.974,9.974-9.974s9.974,4.466,9.974,9.974s-4.466,9.974-9.974,9.974S0.999,16.481,0.999,10.973
            L0.999,10.973z M0.999,10.973" />
        <rect x="9.843" y="14.887" fill-rule="evenodd" clip-rule="evenodd" fill="#BABEBF" width="1.456" height="1.52" />
</svg>