<svg class="img-responsive-SVG" version="1.1" xmlns="http://www.w3.org/2000/svg" xmlns:xlink="http://www.w3.org/1999/xlink"
xmlns:a="http://ns.adobe.com/AdobeSVGViewerExtensions/3.0/" x="0px" y="0px" width="23.494px" height="23.448px"
viewBox="0 0 23.494 23.448" enable-background="new 0 0 23.494 23.448" xml:space="preserve" preserveAspectRatio="xMinYMin">
<path fill="#babebf" d="M16.834,23.448H6.645c-0.547,0-1.044-0.348-1.243-0.845v-0.025l-2.684-9.245
	c-0.721,0.323-1.591,0.174-2.162-0.422c-0.746-0.77-0.746-1.988,0.025-2.734l9.792-9.618c0.746-0.746,1.963-0.746,2.709,0
	l9.841,9.618l0,0c0.373,0.373,0.572,0.845,0.572,1.367s-0.199,1.019-0.547,1.367c-0.373,0.373-0.87,0.572-1.392,0.572
	c-0.273,0-0.547-0.05-0.795-0.174l-2.684,9.27v0.025C17.878,23.1,17.381,23.448,16.834,23.448z M6.371,22.28
	c0.05,0.099,0.174,0.174,0.298,0.174h10.164c0.124,0,0.249-0.075,0.298-0.174l2.883-9.866c0.05-0.174,0.174-0.298,0.348-0.348
	c0.174-0.05,0.348,0,0.472,0.124l0.05,0.05c0.373,0.373,0.994,0.348,1.342,0c0.174-0.174,0.273-0.422,0.273-0.671
	c0-0.249-0.099-0.497-0.273-0.671L12.41,1.255c-0.373-0.348-0.969-0.348-1.317,0l-9.841,9.643
	c-0.373,0.373-0.373,0.969-0.025,1.342s0.969,0.373,1.342,0.025l0.05-0.05c0.124-0.124,0.298-0.174,0.472-0.124
	c0.174,0.05,0.298,0.174,0.348,0.348L6.371,22.28z" />
</svg>