
                    <svg class="img-responsive-SVG" version="1.1" xmlns="http://www.w3.org/2000/svg" xmlns:xlink="http://www.w3.org/1999/xlink"
                        xmlns:a="http://ns.adobe.com/AdobeSVGViewerExtensions/3.0/" x="0px" y="0px" width="21.831px" height="21.706px"
                        viewBox="0 0 21.831 21.706" enable-background="new 0 0 21.831 21.706" xml:space="preserve" preserveAspectRatio="xMinYMin">
                        <g>
                            <path fill="#BABEBF" d="M12.69,0c-0.244,0-0.439,0.195-0.439,0.439V9.14c0,0.244,0.195,0.439,0.439,0.439h8.701
                                c0.244,0,0.439-0.195,0.439-0.439c0-2.232-0.812-4.379-2.29-6.052C17.806,1.127,15.308,0,12.69,0L12.69,0z M13.129,8.701V0.892
                                c2.205,0.12,4.282,1.118,5.755,2.782c1.238,1.398,1.957,3.173,2.059,5.027H13.129z M13.129,8.701" />
                            <path fill="#BABEBF" d="M19.687,11.86c0-0.244-0.195-0.439-0.439-0.439h-8.963V2.454c0-0.244-0.195-0.439-0.439-0.439
                                C4.415,2.014,0,6.429,0,11.86c0,5.427,4.415,9.846,9.846,9.846C15.277,21.706,19.687,17.287,19.687,11.86L19.687,11.86z
                                M9.846,20.828c-4.943,0-8.967-4.024-8.967-8.967c0-4.797,3.785-8.728,8.528-8.959v8.954c0,0.244,0.195,0.439,0.439,0.439H18.8
                                C18.569,17.038,14.642,20.828,9.846,20.828L9.846,20.828z M9.846,20.828" />
                        </g>
                    </svg>