
                    <svg class="img-responsive-SVG" version="1.1" xmlns="http://www.w3.org/2000/svg" xmlns:xlink="http://www.w3.org/1999/xlink"
                        xmlns:a="http://ns.adobe.com/AdobeSVGViewerExtensions/3.0/" x="0px" y="0px" width="20.103px" height="22.322px"
                        viewBox="0 0 20.103 22.322" enable-background="new 0 0 20.103 22.322" xml:space="preserve" preserveAspectRatio="xMinYMin">
                        <path fill="#BABEBF" d="M19.739,18.535c-0.353-1.387-2.554-2.065-4.684-2.72c-0.703-0.217-1.366-0.421-1.891-0.633
                            c-0.3-0.121-0.534-0.98-0.565-2.033c0.256-0.232,0.497-0.539,0.747-0.949c0.081-0.133,0.161-0.257,0.24-0.382
                            c0.256-0.401,0.52-0.814,0.746-1.372c0.223-0.098,0.426-0.284,0.552-0.514c0.472-0.866,0.746-2.254,0.552-2.803
                            c-0.078-0.22-0.239-0.382-0.46-0.467c0.001-2.582-1.143-4.564-3.087-5.335c-0.387-0.171-1.034-0.426-1.917-0.67
                            c-0.37-0.1-0.587-0.279-0.612-0.334C9.343,0.219,9.285,0.127,9.2,0.068c-0.085-0.06-0.193-0.081-0.294-0.061
                            C8.559,0.076,8.254,0.546,8.133,0.843C8.08,0.976,8.048,1.104,8.036,1.226C7.376,1.314,6.719,1.627,6.533,2.305
                            C6.507,2.375,6.5,2.451,6.514,2.521c-0.708,0.79-1.385,2.078-1.384,4.12c-0.249,0.08-0.429,0.247-0.513,0.485
                            c-0.194,0.548,0.08,1.935,0.551,2.801c0.135,0.248,0.359,0.439,0.6,0.529c0.22,0.551,0.47,0.946,0.735,1.362
                            c0.075,0.118,0.151,0.238,0.228,0.364c0.266,0.437,0.535,0.762,0.836,1.008c-0.059,1.137-0.342,1.906-0.589,1.98l-0.385,0.113
                            c-2.889,0.841-5.889,1.884-6.243,3.251C0.051,19.687,0.002,20.423,0,20.478c0,1.017,0.827,1.844,1.843,1.844h16.416
                            c1.017,0,1.844-0.827,1.844-1.844C20.104,20.057,20.038,19.712,19.739,18.535z M18.26,21.553H1.844
                            c-0.593,0-1.075-0.482-1.076-1.051c0-0.007,0.048-0.7,0.326-1.775c0.194-0.748,2.116-1.659,5.714-2.705l0.391-0.114
                            c0.97-0.291,1.123-2.12,1.144-2.892c0.003-0.13-0.059-0.253-0.165-0.326c-0.28-0.194-0.532-0.482-0.79-0.906
                            c-0.08-0.13-0.158-0.255-0.236-0.377c-0.283-0.445-0.527-0.83-0.736-1.408C6.363,9.851,6.222,9.749,6.067,9.742
                            C6.024,9.741,5.908,9.671,5.843,9.554C5.421,8.78,5.25,7.628,5.339,7.372c0.009-0.008,0.054-0.04,0.168-0.04H5.51
                            c0.103,0,0.209-0.025,0.284-0.101C5.868,7.156,5.909,7.064,5.904,6.96c-0.085-2.348,0.78-3.612,1.521-4.259
                            C7.553,2.59,7.592,2.408,7.523,2.254C7.516,2.237,7.507,2.222,7.499,2.207C7.82,1.98,8.35,1.972,8.428,1.972h0.04
                            c0.14,0.009,0.271-0.058,0.346-0.175c0.084-0.13,0.081-0.299-0.007-0.427C8.803,1.363,8.794,1.33,8.809,1.257
                            c0.02-0.096,0.067-0.197,0.12-0.285C9.163,1.175,9.485,1.321,9.77,1.4c0.838,0.232,1.447,0.472,1.824,0.638
                            c1.748,0.692,2.7,2.487,2.61,4.924C14.2,7.064,14.237,7.165,14.308,7.24c0.07,0.075,0.168,0.119,0.272,0.12
                            c0.084,0.002,0.126,0.02,0.13,0.025c0.091,0.258-0.08,1.406-0.502,2.179c-0.063,0.115-0.176,0.185-0.223,0.19
                            c-0.141,0.02-0.258,0.114-0.307,0.247c-0.212,0.573-0.469,0.977-0.743,1.403c-0.082,0.128-0.165,0.258-0.249,0.396
                            c-0.244,0.402-0.479,0.686-0.713,0.868c-0.096,0.074-0.15,0.187-0.15,0.307c0.007,0.934,0.151,2.557,1.048,2.919
                            c0.556,0.225,1.235,0.435,1.953,0.655c1.746,0.537,3.918,1.206,4.165,2.176c0.296,1.162,0.341,1.431,0.341,1.752
                            C19.335,21.07,18.853,21.553,18.26,21.553z" />
                    </svg>