<svg class="img-responsive-SVG" version="1.1"
	 xmlns="http://www.w3.org/2000/svg" xmlns:xlink="http://www.w3.org/1999/xlink" xmlns:a="http://ns.adobe.com/AdobeSVGViewerExtensions/3.0/"
	 x="0px" y="0px" width="26.918px" height="23.239px" viewBox="0 0 26.918 23.239" enable-background="new 0 0 26.918 23.239"
	 xml:space="preserve" preserveAspectRatio="xMinYMin">
<path fill="#BABEBF" d="M22.272,11.458c-0.376-0.176-0.761-0.357-1.026-0.528c1.41-1.073,2.287-2.952,2.287-5.006
	C23.533,2.657,21.321,0,18.603,0c-2.264,0-4.173,1.845-4.748,4.349c-0.131-0.013-0.263-0.024-0.397-0.024
	c-0.133,0-0.265,0.011-0.395,0.024C12.487,1.845,10.578,0,8.315,0C5.596,0,3.385,2.657,3.385,5.924c0,2.058,0.876,3.933,2.288,5.005
	c-0.265,0.17-0.651,0.351-1.029,0.528C2.795,12.325,0,13.637,0,18.02v0.895h0.895h5.03c-0.475,0.872-0.78,1.983-0.78,3.43v0.895
	h0.895h7.367h0.106h7.367h0.895v-0.895c0-1.447-0.306-2.558-0.78-3.43h5.031h0.895V18.02C26.917,13.637,24.122,12.326,22.272,11.458
	z M0.894,18.021c0-5.388,4.732-5.387,5.782-6.796l0.12-0.642C5.321,9.835,4.28,8.032,4.28,5.924c0-2.777,1.806-5.029,4.035-5.029
	c1.84,0,3.391,1.536,3.875,3.636c-2.105,0.675-3.661,2.979-3.661,5.718c0,2.039,0.861,3.897,2.249,4.974
	c-0.01,0.025-0.021,0.048-0.031,0.073c-0.261,0.158-0.612,0.324-0.959,0.487c-1.007,0.473-2.294,1.078-3.258,2.238L0.894,18.021
	L0.894,18.021z M13.51,22.345h-0.106H6.038c0-5.388,4.732-5.386,5.782-6.795l0.12-0.642c-1.475-0.748-2.517-2.55-2.517-4.659
	c0-2.777,1.806-5.029,4.035-5.029c2.228,0,4.035,2.252,4.035,5.029c0,2.091-1.023,3.882-2.479,4.641l0.137,0.73
	c1.152,1.34,5.726,1.428,5.726,6.725L13.51,22.345L13.51,22.345z M20.385,18.021c-0.964-1.16-2.251-1.765-3.258-2.238
	c-0.346-0.163-0.695-0.328-0.956-0.486c-0.01-0.026-0.021-0.048-0.031-0.073c1.386-1.077,2.248-2.94,2.248-4.975
	c0-2.738-1.556-5.042-3.66-5.718c0.485-2.1,2.034-3.636,3.875-3.636c2.228,0,4.035,2.252,4.035,5.029
	c0,2.09-1.023,3.881-2.479,4.641l0.137,0.73c1.152,1.34,5.726,1.428,5.726,6.725H20.385z"/>
</svg>
