<svg class="img-responsive-SVG" version="1.1"
	 xmlns="http://www.w3.org/2000/svg" xmlns:xlink="http://www.w3.org/1999/xlink" xmlns:a="http://ns.adobe.com/AdobeSVGViewerExtensions/3.0/"
	 x="0px" y="0px" width="16.645px" height="22.974px" viewBox="0 0 16.645 22.974" enable-background="new 0 0 16.645 22.974"
	 xml:space="preserve" preserveAspectRatio="xMinYMin">
<path fill="#BABEBF" d="M12.873,19.202l2.21,0.002l-2.208,2.208L12.873,19.202L12.873,19.202z M0.915,0.915H15.73V18.29
	l-3.314-0.003h0c-0.121,0-0.238,0.048-0.324,0.134c-0.086,0.086-0.134,0.203-0.134,0.324l0.003,3.314H0.915V0.915L0.915,0.915z
	 M16.188,0H0.458C0.205,0,0,0.205,0,0.458v22.059c0,0.253,0.205,0.458,0.458,0.458h11.961c0.121,0,0.238-0.048,0.324-0.134
	l3.769-3.769c0.086-0.086,0.134-0.202,0.134-0.324V0.458C16.645,0.205,16.44,0,16.188,0L16.188,0z"/>
<path fill="#BABEBF" d="M4.904,3.85L3.557,5.197L3.223,4.862c-0.179-0.179-0.468-0.179-0.647,0c-0.179,0.179-0.179,0.469,0,0.647
	l0.658,0.658c0.086,0.086,0.202,0.134,0.324,0.134c0.121,0,0.238-0.048,0.324-0.134l1.67-1.67c0.179-0.179,0.179-0.468,0-0.647
	C5.373,3.671,5.083,3.671,4.904,3.85L4.904,3.85z"/>
<path fill="#BABEBF" d="M4.904,8.28L3.557,9.627L3.223,9.293c-0.179-0.179-0.468-0.179-0.647,0c-0.179,0.179-0.179,0.469,0,0.647
	l0.658,0.658c0.086,0.086,0.202,0.134,0.324,0.134c0.121,0,0.238-0.048,0.324-0.134l1.67-1.67c0.179-0.179,0.179-0.469,0-0.647
	C5.373,8.101,5.083,8.101,4.904,8.28L4.904,8.28z"/>
<path fill="#BABEBF" d="M6.997,10.108h6.749c0.253,0,0.458-0.205,0.458-0.458c0-0.253-0.205-0.458-0.458-0.458H6.997
	c-0.253,0-0.458,0.205-0.458,0.458C6.539,9.903,6.744,10.108,6.997,10.108L6.997,10.108z"/>
<path fill="#BABEBF" d="M6.997,5.677h6.749c0.253,0,0.458-0.205,0.458-0.458c0-0.253-0.205-0.458-0.458-0.458H6.997
	c-0.253,0-0.458,0.205-0.458,0.458C6.539,5.472,6.744,5.677,6.997,5.677L6.997,5.677z"/>
<path fill="#BABEBF" d="M4.904,12.697l-1.347,1.347l-0.334-0.334c-0.179-0.179-0.468-0.179-0.647,0
	c-0.179,0.179-0.179,0.469,0,0.647l0.658,0.658c0.086,0.086,0.202,0.134,0.324,0.134c0.121,0,0.238-0.048,0.324-0.134l1.67-1.67
	c0.179-0.179,0.179-0.469,0-0.647C5.373,12.518,5.083,12.518,4.904,12.697L4.904,12.697z"/>
</svg>
