<svg class="img-responsive-SVG" version="1.1" xmlns="http://www.w3.org/2000/svg" xmlns:xlink="http://www.w3.org/1999/xlink"
    xmlns:a="http://ns.adobe.com/AdobeSVGViewerExtensions/3.0/" x="0px" y="0px" width="17.585px" height="22.867px"
    viewBox="0 0 17.585 22.867" enable-background="new 0 0 17.585 22.867" xml:space="preserve" preserveAspectRatio="xMinYMin">
    <g>
        <path fill="#BABEBF" d="M2.281,6.094c0.03,0,0.09,0.03,0.12,0.03h10.503c0.24,0,0.45-0.21,0.45-0.45c0-0.24-0.21-0.45-0.45-0.45
            H2.401c-0.03,0-0.09,0-0.12,0.03c-0.18,0.06-0.33,0.24-0.33,0.42C1.951,5.854,2.071,6.064,2.281,6.094z M2.281,8.823
            c0.03,0,0.09,0.03,0.12,0.03h10.503c0.24,0,0.45-0.21,0.45-0.45c0-0.24-0.21-0.45-0.45-0.45H2.401c-0.03,0-0.09,0-0.12,0.03
            c-0.18,0.06-0.33,0.24-0.33,0.42S2.071,8.763,2.281,8.823z M2.281,11.551c0.03,0,0.09,0.03,0.12,0.03h10.503
            c0.24,0,0.45-0.21,0.45-0.45c0-0.24-0.21-0.48-0.45-0.48H2.401c-0.03,0-0.09,0-0.12,0.03c-0.18,0.06-0.33,0.24-0.33,0.42
            S2.071,11.491,2.281,11.551z M2.281,14.249c0.03,0,0.09,0.03,0.12,0.03h10.503c0.24,0,0.45-0.21,0.45-0.45
            c0-0.24-0.21-0.45-0.45-0.45H2.401c-0.03,0-0.09,0-0.12,0.03c-0.18,0.06-0.33,0.24-0.33,0.42
            C1.951,14.009,2.071,14.219,2.281,14.249z M17.585,3.301v18.516c0,0.57-0.48,1.05-1.05,1.05H3.331c-0.57,0-1.05-0.48-1.05-1.05
            v-1.2H1.05c-0.57,0-1.05-0.48-1.05-1.05V1.05C0,0.48,0.48,0,1.05,0h13.204c0.57,0,1.05,0.48,1.05,1.05v1.2h1.23
            C17.105,2.251,17.585,2.701,17.585,3.301z M2.281,19.686h0.93h11.043l0.12-0.12V1.05l-0.12-0.12H1.05L0.93,1.05v18.516l0.12,0.12
            H2.281z M16.655,3.301l-0.12-0.12h-1.23v16.385c0,0.57-0.48,1.05-1.05,1.05H3.211v1.2l0.12,0.12h13.204l0.12-0.12L16.655,3.301z"
        />
    </g>
</svg>