
                    <svg class="img-responsive-SVG" version="1.1" xmlns="http://www.w3.org/2000/svg" xmlns:xlink="http://www.w3.org/1999/xlink"
                        xmlns:a="http://ns.adobe.com/AdobeSVGViewerExtensions/3.0/" x="0px" y="0px" width="16.964px" height="22.388px"
                        viewBox="0 0 16.964 22.388" enable-background="new 0 0 16.964 22.388" xml:space="preserve" preserveAspectRatio="xMinYMin">
                        <path fill="#BABEBF" d="M15.142,15.395h-0.131l-0.664-6.176c-0.256-2.123-1.553-4.345-3.611-5.312V2.254
                            C10.736,1.011,9.724,0,8.482,0S6.228,1.011,6.228,2.254V3.9C4.305,4.774,2.897,6.747,2.616,9.225l-0.664,6.17H1.821
                            C0.817,15.395,0,16.212,0,17.217c0,1.005,0.817,1.822,1.821,1.822h4.109v0.796c0,1.408,1.145,2.553,2.552,2.553
                            s2.553-1.145,2.553-2.553v-0.796h4.108c1.004,0,1.821-0.817,1.821-1.822C16.963,16.213,16.147,15.395,15.142,15.395z M7.173,2.254
                            c0-0.721,0.587-1.308,1.308-1.308s1.308,0.587,1.308,1.308v1.318C9.376,3.468,8.941,3.408,8.481,3.408
                            c-0.451,0-0.887,0.061-1.308,0.165V2.254z M3.556,9.329c0.28-2.473,2.062-4.976,4.926-4.976c2.809,0,4.635,2.565,4.925,4.973
                            l0.653,6.069H2.903L3.556,9.329z M10.088,19.835c0,0.886-0.721,1.607-1.607,1.607s-1.607-0.721-1.607-1.607v-0.796h3.213
                            L10.088,19.835L10.088,19.835z M15.142,18.093H1.82c-0.482,0-0.875-0.393-0.875-0.876c0-0.483,0.393-0.876,0.875-0.876h13.322
                            c0.482,0,0.875,0.393,0.875,0.876C16.017,17.7,15.625,18.093,15.142,18.093z" />
                    </svg>